<svg width="current" height="current" viewBox="0 0 16 16" fill="currentColor" xmlns="http://www.w3.org/2000/svg">
<path d="M6 3H5V4H6V3Z" />
<path d="M7 3H6V4H7V3Z" />
<path d="M8 3H7V4H8V3Z" />
<path d="M9 3H8V4H9V3Z" />
<path d="M10 3H9V4H10V3Z" />
<path d="M11 3H10V4H11V3Z" />
<path d="M12 3H11V4H12V3Z" />
<path d="M13 3H12V4H13V3Z" />
<path d="M3 4H2V5H3V4Z" />
<path d="M5 4H4V5H5V4Z" />
<path d="M4 3H3V4H4V3Z" />
<path d="M5 3H4V4H5V3Z" />
<path d="M7 4H6V5H7V4Z" />
<path d="M9 4H8V5H9V4Z" />
<path d="M8 5H7V6H8V5Z" />
<path d="M11 4H10V5H11V4Z" />
<path d="M2 5H1V6H2V5Z" />
<path d="M4 5H3V6H4V5Z" />
<path d="M6 5H5V6H6V5Z" />
<path d="M10 5H9V6H10V5Z" />
<path d="M15 5H14V6H15V5Z" />
<path d="M1 6H0V7H1V6Z" />
<path d="M2 6H1V7H2V6Z" />
<path d="M3 6H2V7H3V6Z" />
<path d="M4 6H3V7H4V6Z" />
<path d="M5 6H4V7H5V6Z" />
<path d="M6 6H5V7H6V6Z" />
<path d="M7 6H6V7H7V6Z" />
<path d="M8 6H7V7H8V6Z" />
<path d="M9 6H8V7H9V6Z" />
<path d="M16 6H15V7H16V6Z" />
<path d="M1 7H0V8H1V7Z" />
<path d="M9 7H8V8H9V7Z" />
<path d="M16 7H15V8H16V7Z" />
<path d="M1 8H0V9H1V8Z" />
<path d="M9 8H8V9H9V8Z" />
<path d="M16 8H15V9H16V8Z" />
<path d="M1 9H0V10H1V9Z" />
<path d="M2 9H1V10H2V9Z" />
<path d="M3 9H2V10H3V9Z" />
<path d="M4 9H3V10H4V9Z" />
<path d="M5 9H4V10H5V9Z" />
<path d="M6 9H5V10H6V9Z" />
<path d="M7 9H6V10H7V9Z" />
<path d="M8 9H7V10H8V9Z" />
<path d="M9 9H8V10H9V9Z" />
<path d="M16 9H15V10H16V9Z" />
<path d="M1 10H0V11H1V10Z" />
<path d="M6 10H5V11H6V10Z" />
<path d="M9 10H8V11H9V10Z" />
<path d="M16 10H15V11H16V10Z" />
<path d="M1 11H0V12H1V11Z" />
<path d="M2 12H1V13H2V12Z" />
<path d="M3 12H2V13H3V12Z" />
<path d="M4 12H3V13H4V12Z" />
<path d="M5 12H4V13H5V12Z" />
<path d="M6 11H5V12H6V11Z" />
<path d="M9 11H8V12H9V11Z" />
<path d="M16 11H15V12H16V11Z" />
<path d="M1 12H0V13H1V12Z" />
<path d="M6 12H5V13H6V12Z" />
<path d="M6 13H5V14H6V13Z" />
<path d="M9 13H8V14H9V13Z" />
<path d="M16 12H15V13H16V12Z" />
<path d="M16 13H15V14H16V13Z" />
<path d="M1 13H0V14H1V13Z" />
<path d="M1 14H0V15H1V14Z" />
<path d="M2 14H1V15H2V14Z" />
<path d="M3 14H2V15H3V14Z" />
<path d="M4 14H3V15H4V14Z" />
<path d="M5 14H4V15H5V14Z" />
<path d="M6 14H5V15H6V14Z" />
<path d="M7 14H6V15H7V14Z" />
<path d="M8 14H7V15H8V14Z" />
<path d="M9 14H8V15H9V14Z" />
<path d="M10 14H9V15H10V14Z" />
<path d="M11 14H10V15H11V14Z" />
<path d="M12 14H11V15H12V14Z" />
<path d="M13 14H12V15H13V14Z" />
<path d="M14 14H13V15H14V14Z" />
<path d="M15 14H14V15H15V14Z" />
<path d="M16 14H15V15H16V14Z" />
<path d="M9 12H8V13H9V12Z" />
<path d="M7 4H6V5H7V4Z" />
<path d="M13 6H12V7H13V6Z" />
<path d="M12 6H11V7H12V6Z" />
<path d="M11 4H10V5H11V4Z" />
<path d="M14 6H13V7H14V6Z" />
<path d="M14 1H13V2H14V1Z" />
<path d="M11 4H10V5H11V4Z" />
<path d="M11 4H10V5H11V4Z" />
<path d="M12 1H11V2H12V1Z" />
<path d="M13 1H12V2H13V1Z" />
<path d="M14 1H13V2H14V1Z" />
<path d="M15 1H14V2H15V1Z" />
<path d="M15 2H14V3H15V2Z" />
<path d="M16 2H15V3H16V2Z" />
<path d="M14 2H13V3H14V2Z" />
<path d="M14 3H13V4H14V3Z" />
<path d="M16 3H15V4H16V3Z" />
<path d="M15 4H14V5H15V4Z" />
<path d="M16 4H15V5H16V4Z" />
<path d="M14 5H13V6H14V5Z" />
<path d="M15 5H14V6H15V5Z" />
<path d="M15 5H14V6H15V5Z" />
<path d="M16 5H15V6H16V5Z" />
<path d="M15 6H14V7H15V6Z" />
<path d="M13 3H12V4H13V3Z" />
<path d="M13 4H12V5H13V4Z" />
<path d="M13 2H12V3H13V2Z" />
<path d="M12 2H11V3H12V2Z" />
<path d="M12 3H11V4H12V3Z" />
<path d="M11 3H10V4H11V3Z" />
<path d="M11 2H10V3H11V2Z" />
<path d="M12 5H11V6H12V5Z" />
<path d="M11 5H10V6H11V5Z" />
</svg>
