<svg width="6" height="6" viewBox="0 0 6 6" fill="none" xmlns="http://www.w3.org/2000/svg">
<path d="M2 3H1V4H2V3Z" fill="white"/>
<path d="M4 3H3V4H4V3Z" fill="white"/>
<path d="M3 4H2V5H3V4Z" fill="white"/>
<path d="M5 2H4V3H5V2Z" fill="white"/>
<path d="M3 5H2V6H3V5Z" fill="#231F20"/>
<path d="M2 5H1V6H2V5Z" fill="#231F20"/>
<path d="M1 3H0V4H1V3Z" fill="#231F20"/>
<path d="M4 5H3V6H4V5Z" fill="#231F20"/>
<path d="M4 0H3V1H4V0Z" fill="#231F20"/>
<path d="M1 3H0V4H1V3Z" fill="#231F20"/>
<path d="M1 3H0V4H1V3Z" fill="#231F20"/>
<path d="M2 0H1V1H2V0Z" fill="#231F20"/>
<path d="M3 0H2V1H3V0Z" fill="#231F20"/>
<path d="M4 0H3V1H4V0Z" fill="#231F20"/>
<path d="M5 0H4V1H5V0Z" fill="#231F20"/>
<path d="M5 1H4V2H5V1Z" fill="#231F20"/>
<path d="M6 1H5V2H6V1Z" fill="#231F20"/>
<path d="M4 1H3V2H4V1Z" fill="#231F20"/>
<path d="M4 2H3V3H4V2Z" fill="#231F20"/>
<path d="M6 2H5V3H6V2Z" fill="#231F20"/>
<path d="M5 3H4V4H5V3Z" fill="#231F20"/>
<path d="M6 3H5V4H6V3Z" fill="#231F20"/>
<path d="M4 4H3V5H4V4Z" fill="#231F20"/>
<path d="M5 4H4V5H5V4Z" fill="#231F20"/>
<path d="M5 4H4V5H5V4Z" fill="#231F20"/>
<path d="M6 4H5V5H6V4Z" fill="#231F20"/>
<path d="M5 5H4V6H5V5Z" fill="#231F20"/>
<path d="M3 2H2V3H3V2Z" fill="#231F20"/>
<path d="M3 3H2V4H3V3Z" fill="#231F20"/>
<path d="M3 1H2V2H3V1Z" fill="#231F20"/>
<path d="M2 1H1V2H2V1Z" fill="#231F20"/>
<path d="M2 2H1V3H2V2Z" fill="#231F20"/>
<path d="M1 2H0V3H1V2Z" fill="#231F20"/>
<path d="M1 1H0V2H1V1Z" fill="#231F20"/>
<path d="M2 4H1V5H2V4Z" fill="#231F20"/>
<path d="M1 4H0V5H1V4Z" fill="#231F20"/>
</svg>
