<svg width="180" height="180" viewBox="0 0 180 180" fill="none" xmlns="http://www.w3.org/2000/svg">
<path d="M67.5 45H56.25V56.25H67.5V45Z" fill="white"/>
<path d="M90 45H78.75V56.25H90V45Z" fill="white"/>
<path d="M112.5 45H101.25V56.25H112.5V45Z" fill="white"/>
<path d="M135 45H123.75V56.25H135V45Z" fill="white"/>
<path d="M56.25 56.25H45V67.5H56.25V56.25Z" fill="white"/>
<path d="M78.75 56.25H67.5V67.5H78.75V56.25Z" fill="white"/>
<path d="M101.25 56.25H90V67.5H101.25V56.25Z" fill="white"/>
<path d="M123.75 56.25H112.5V67.5H123.75V56.25Z" fill="white"/>
<path d="M135 56.25H123.75V67.5H135V56.25Z" fill="white"/>
<path d="M146.25 56.25H135V67.5H146.25V56.25Z" fill="white"/>
<path d="M112.5 67.5H101.25V78.75H112.5V67.5Z" fill="white"/>
<path d="M123.75 67.5H112.5V78.75H123.75V67.5Z" fill="white"/>
<path d="M135 67.5H123.75V78.75H135V67.5Z" fill="white"/>
<path d="M146.25 67.5H135V78.75H146.25V67.5Z" fill="white"/>
<path d="M157.5 67.5H146.25V78.75H157.5V67.5Z" fill="white"/>
<path d="M33.75 78.75H22.5V90H33.75V78.75Z" fill="white"/>
<path d="M45 78.75H33.75V90H45V78.75Z" fill="white"/>
<path d="M56.25 78.75H45V90H56.25V78.75Z" fill="white"/>
<path d="M67.5 78.75H56.25V90H67.5V78.75Z" fill="white"/>
<path d="M78.75 78.75H67.5V90H78.75V78.75Z" fill="white"/>
<path d="M90 78.75H78.75V90H90V78.75Z" fill="white"/>
<path d="M112.5 78.75H101.25V90H112.5V78.75Z" fill="white"/>
<path d="M123.75 78.75H112.5V90H123.75V78.75Z" fill="white"/>
<path d="M135 78.75H123.75V90H135V78.75Z" fill="white"/>
<path d="M146.25 78.75H135V90H146.25V78.75Z" fill="white"/>
<path d="M157.5 78.75H146.25V90H157.5V78.75Z" fill="white"/>
<path d="M33.75 90H22.5V101.25H33.75V90Z" fill="white"/>
<path d="M45 90H33.75V101.25H45V90Z" fill="white"/>
<path d="M56.25 90H45V101.25H56.25V90Z" fill="white"/>
<path d="M67.5 90H56.25V101.25H67.5V90Z" fill="white"/>
<path d="M78.75 90H67.5V101.25H78.75V90Z" fill="white"/>
<path d="M90 90H78.75V101.25H90V90Z" fill="white"/>
<path d="M112.5 90H101.25V101.25H112.5V90Z" fill="white"/>
<path d="M123.75 90H112.5V101.25H123.75V90Z" fill="white"/>
<path d="M135 90H123.75V101.25H135V90Z" fill="white"/>
<path d="M146.25 90H135V101.25H146.25V90Z" fill="white"/>
<path d="M157.5 90H146.25V101.25H157.5V90Z" fill="white"/>
<path d="M112.5 101.25H101.25V112.5H112.5V101.25Z" fill="white"/>
<path d="M123.75 101.25H112.5V112.5H123.75V101.25Z" fill="white"/>
<path d="M135 101.25H123.75V112.5H135V101.25Z" fill="white"/>
<path d="M146.25 101.25H135V112.5H146.25V101.25Z" fill="white"/>
<path d="M157.5 101.25H146.25V112.5H157.5V101.25Z" fill="white"/>
<path d="M33.75 112.5H22.5V123.75H33.75V112.5Z" fill="white"/>
<path d="M45 112.5H33.75V123.75H45V112.5Z" fill="white"/>
<path d="M56.25 112.5H45V123.75H56.25V112.5Z" fill="white"/>
<path d="M78.75 112.5H67.5V123.75H78.75V112.5Z" fill="white"/>
<path d="M90 112.5H78.75V123.75H90V112.5Z" fill="white"/>
<path d="M112.5 112.5H101.25V123.75H112.5V112.5Z" fill="white"/>
<path d="M123.75 112.5H112.5V123.75H123.75V112.5Z" fill="white"/>
<path d="M135 112.5H123.75V123.75H135V112.5Z" fill="white"/>
<path d="M146.25 112.5H135V123.75H146.25V112.5Z" fill="white"/>
<path d="M157.5 112.5H146.25V123.75H157.5V112.5Z" fill="white"/>
<path d="M78.75 123.75H67.5V135H78.75V123.75Z" fill="white"/>
<path d="M90 123.75H78.75V135H90V123.75Z" fill="white"/>
<path d="M112.5 123.75H101.25V135H112.5V123.75Z" fill="white"/>
<path d="M123.75 123.75H112.5V135H123.75V123.75Z" fill="white"/>
<path d="M135 123.75H123.75V135H135V123.75Z" fill="white"/>
<path d="M146.25 123.75H135V135H146.25V123.75Z" fill="white"/>
<path d="M157.5 123.75H146.25V135H157.5V123.75Z" fill="white"/>
<path d="M33.75 135H22.5V146.25H33.75V135Z" fill="white"/>
<path d="M45 135H33.75V146.25H45V135Z" fill="white"/>
<path d="M56.25 135H45V146.25H56.25V135Z" fill="white"/>
<path d="M78.75 135H67.5V146.25H78.75V135Z" fill="white"/>
<path d="M90 135H78.75V146.25H90V135Z" fill="white"/>
<path d="M112.5 135H101.25V146.25H112.5V135Z" fill="white"/>
<path d="M123.75 135H112.5V146.25H123.75V135Z" fill="white"/>
<path d="M135 135H123.75V146.25H135V135Z" fill="white"/>
<path d="M146.25 135H135V146.25H146.25V135Z" fill="white"/>
<path d="M157.5 135H146.25V146.25H157.5V135Z" fill="white"/>
<path d="M67.5 33.75H56.25V45H67.5V33.75Z" fill="black"/>
<path d="M78.75 33.75H67.5V45H78.75V33.75Z" fill="black"/>
<path d="M90 33.75H78.75V45H90V33.75Z" fill="black"/>
<path d="M101.25 33.75H90V45H101.25V33.75Z" fill="black"/>
<path d="M112.5 33.75H101.25V45H112.5V33.75Z" fill="black"/>
<path d="M123.75 33.75H112.5V45H123.75V33.75Z" fill="black"/>
<path d="M135 33.75H123.75V45H135V33.75Z" fill="black"/>
<path d="M45 45H33.75V56.25H45V45Z" fill="black"/>
<path d="M56.25 45H45V56.25H56.25V45Z" fill="black"/>
<path d="M56.25 33.75H45V45H56.25V33.75Z" fill="black"/>
<path d="M78.75 45H67.5V56.25H78.75V45Z" fill="black"/>
<path d="M101.25 45H90V56.25H101.25V45Z" fill="black"/>
<path d="M123.75 45H112.5V56.25H123.75V45Z" fill="black"/>
<path d="M146.25 45H135V56.25H146.25V45Z" fill="black"/>
<path d="M33.75 56.25H22.5V67.5H33.75V56.25Z" fill="black"/>
<path d="M45 56.25H33.75V67.5H45V56.25Z" fill="black"/>
<path d="M67.5 56.25H56.25V67.5H67.5V56.25Z" fill="black"/>
<path d="M90 56.25H78.75V67.5H90V56.25Z" fill="black"/>
<path d="M112.5 56.25H101.25V67.5H112.5V56.25Z" fill="black"/>
<path d="M157.5 56.25H146.25V67.5H157.5V56.25Z" fill="black"/>
<path d="M22.5 67.5H11.25V78.75H22.5V67.5Z" fill="black"/>
<path d="M33.75 67.5H22.5V78.75H33.75V67.5Z" fill="black"/>
<path d="M45 67.5H33.75V78.75H45V67.5Z" fill="black"/>
<path d="M56.25 67.5H45V78.75H56.25V67.5Z" fill="black"/>
<path d="M67.5 67.5H56.25V78.75H67.5V67.5Z" fill="black"/>
<path d="M78.75 67.5H67.5V78.75H78.75V67.5Z" fill="black"/>
<path d="M90 67.5H78.75V78.75H90V67.5Z" fill="black"/>
<path d="M101.25 67.5H90V78.75H101.25V67.5Z" fill="black"/>
<path d="M168.75 67.5H157.5V78.75H168.75V67.5Z" fill="black"/>
<path d="M22.5 78.75H11.25V90H22.5V78.75Z" fill="black"/>
<path d="M101.25 78.75H90V90H101.25V78.75Z" fill="black"/>
<path d="M168.75 78.75H157.5V90H168.75V78.75Z" fill="black"/>
<path d="M22.5 90H11.25V101.25H22.5V90Z" fill="black"/>
<path d="M101.25 90H90V101.25H101.25V90Z" fill="black"/>
<path d="M168.75 90H157.5V101.25H168.75V90Z" fill="black"/>
<path d="M22.5 101.25H11.25V112.5H22.5V101.25Z" fill="black"/>
<path d="M33.75 101.25H22.5V112.5H33.75V101.25Z" fill="black"/>
<path d="M45 101.25H33.75V112.5H45V101.25Z" fill="black"/>
<path d="M56.25 101.25H45V112.5H56.25V101.25Z" fill="black"/>
<path d="M67.5 101.25H56.25V112.5H67.5V101.25Z" fill="black"/>
<path d="M78.75 101.25H67.5V112.5H78.75V101.25Z" fill="black"/>
<path d="M90 101.25H78.75V112.5H90V101.25Z" fill="black"/>
<path d="M101.25 101.25H90V112.5H101.25V101.25Z" fill="black"/>
<path d="M168.75 101.25H157.5V112.5H168.75V101.25Z" fill="black"/>
<path d="M22.5 112.5H11.25V123.75H22.5V112.5Z" fill="black"/>
<path d="M67.5 112.5H56.25V123.75H67.5V112.5Z" fill="black"/>
<path d="M101.25 112.5H90V123.75H101.25V112.5Z" fill="black"/>
<path d="M168.75 112.5H157.5V123.75H168.75V112.5Z" fill="black"/>
<path d="M22.5 123.75H11.25V135H22.5V123.75Z" fill="black"/>
<path d="M33.75 123.75H22.5V135H33.75V123.75Z" fill="black"/>
<path d="M45 123.75H33.75V135H45V123.75Z" fill="black"/>
<path d="M56.25 123.75H45V135H56.25V123.75Z" fill="black"/>
<path d="M67.5 123.75H56.25V135H67.5V123.75Z" fill="black"/>
<path d="M101.25 123.75H90V135H101.25V123.75Z" fill="black"/>
<path d="M168.75 123.75H157.5V135H168.75V123.75Z" fill="black"/>
<path d="M22.5 135H11.25V146.25H22.5V135Z" fill="black"/>
<path d="M67.5 135H56.25V146.25H67.5V135Z" fill="black"/>
<path d="M101.25 135H90V146.25H101.25V135Z" fill="black"/>
<path d="M168.75 135H157.5V146.25H168.75V135Z" fill="black"/>
<path d="M22.5 146.25H11.25V157.5H22.5V146.25Z" fill="black"/>
<path d="M33.75 146.25H22.5V157.5H33.75V146.25Z" fill="black"/>
<path d="M45 146.25H33.75V157.5H45V146.25Z" fill="black"/>
<path d="M56.25 146.25H45V157.5H56.25V146.25Z" fill="black"/>
<path d="M67.5 146.25H56.25V157.5H67.5V146.25Z" fill="black"/>
<path d="M78.75 146.25H67.5V157.5H78.75V146.25Z" fill="black"/>
<path d="M90 146.25H78.75V157.5H90V146.25Z" fill="black"/>
<path d="M101.25 146.25H90V157.5H101.25V146.25Z" fill="black"/>
<path d="M112.5 146.25H101.25V157.5H112.5V146.25Z" fill="black"/>
<path d="M123.75 146.25H112.5V157.5H123.75V146.25Z" fill="black"/>
<path d="M135 146.25H123.75V157.5H135V146.25Z" fill="black"/>
<path d="M146.25 146.25H135V157.5H146.25V146.25Z" fill="black"/>
<path d="M157.5 146.25H146.25V157.5H157.5V146.25Z" fill="black"/>
<path d="M168.75 146.25H157.5V157.5H168.75V146.25Z" fill="black"/>
<path d="M134.667 46H123.333V57H134.667V46Z" fill="white"/>
<path d="M157.333 46H146V57H157.333V46Z" fill="white"/>
<path d="M146 57H134.667V68H146L146 57Z" fill="white"/>
<path d="M168.667 35H157.333V46L168.667 46V35Z" fill="white"/>
<path d="M146 68H134.667V79H146V68Z" fill="black"/>
<path d="M134.667 68H123.333V79H134.667V68Z" fill="black"/>
<path d="M123.333 46H112V57H123.333V46Z" fill="black"/>
<path d="M157.333 68H146V79H157.333V68Z" fill="black"/>
<path d="M157.333 13H146V24H157.333V13Z" fill="black"/>
<path d="M123.333 46H112V57H123.333V46Z" fill="black"/>
<path d="M123.333 46H112V57H123.333V46Z" fill="black"/>
<path d="M134.667 13H123.333V24H134.667V13Z" fill="black"/>
<path d="M146 13H134.667V24H146V13Z" fill="black"/>
<path d="M157.333 13H146V24H157.333V13Z" fill="black"/>
<path d="M168.667 13H157.333V24H168.667V13Z" fill="black"/>
<path d="M168.667 24H157.333V35H168.667V24Z" fill="black"/>
<path d="M180 24H168.667V35H180V24Z" fill="black"/>
<path d="M157.333 24H146V35H157.333V24Z" fill="black"/>
<path d="M157.333 35H146V46H157.333V35Z" fill="black"/>
<path d="M180 35H168.667L168.667 46H180V35Z" fill="black"/>
<path d="M168.667 46H157.333V57H168.667L168.667 46Z" fill="black"/>
<path d="M180 46H168.667L168.667 57H180V46Z" fill="black"/>
<path d="M157.333 57L146 57V68H157.333V57Z" fill="black"/>
<path d="M168.667 57H157.333V68L168.667 68V57Z" fill="black"/>
<path d="M168.667 57H157.333V68L168.667 68V57Z" fill="black"/>
<path d="M180 57H168.667V68H180V57Z" fill="black"/>
<path d="M168.667 68L157.333 68V79H168.667V68Z" fill="black"/>
<path d="M146 35H134.667V46H146V35Z" fill="black"/>
<path d="M146 46H134.667V57L146 57V46Z" fill="black"/>
<path d="M146 24H134.667V35H146V24Z" fill="black"/>
<path d="M134.667 24H123.333V35H134.667V24Z" fill="black"/>
<path d="M134.667 35H123.333V46L134.667 46V35Z" fill="black"/>
<path d="M123.333 35H112V46H123.333V35Z" fill="black"/>
<path d="M123.333 24H112V35H123.333V24Z" fill="black"/>
<path d="M134.667 57H123.333V68H134.667V57Z" fill="black"/>
<path d="M123.333 57H112V68L123.333 68V57Z" fill="black"/>
</svg>
