<svg width="180" height="180" viewBox="0 0 180 180" fill="none" xmlns="http://www.w3.org/2000/svg">
<path d="M146.25 67.5H135V78.75H146.25V67.5Z" fill="#444041"/>
<path d="M135 67.5H123.75V78.75H135V67.5Z" fill="#444041"/>
<path d="M67.5 33.75H56.25V45H67.5V33.75Z" fill="#444041"/>
<path d="M78.75 33.75H67.5V45H78.75V33.75Z" fill="#444041"/>
<path d="M90 33.75H78.75V45H90V33.75Z" fill="#444041"/>
<path d="M101.25 33.75H90V45H101.25V33.75Z" fill="#444041"/>
<path d="M112.5 33.75H101.25V45H112.5V33.75Z" fill="#444041"/>
<path d="M123.75 45H112.5V56.25H123.75V45Z" fill="#444041"/>
<path d="M45 45H33.75V56.25H45V45Z" fill="#444041"/>
<path d="M56.25 45H45V56.25H56.25V45Z" fill="#444041"/>
<path d="M56.25 33.75H45V45H56.25V33.75Z" fill="#444041"/>
<path d="M78.75 45H67.5V56.25H78.75V45Z" fill="#444041"/>
<path d="M101.25 45H90V56.25H101.25V45Z" fill="#444041"/>
<path d="M33.75 56.25H22.5V67.5H33.75V56.25Z" fill="#444041"/>
<path d="M45 56.25H33.75V67.5H45V56.25Z" fill="#444041"/>
<path d="M67.5 56.25H56.25V67.5H67.5V56.25Z" fill="#444041"/>
<path d="M90 56.25H78.75V67.5H90V56.25Z" fill="#444041"/>
<path d="M112.5 56.25H101.25V67.5H112.5V56.25Z" fill="#444041"/>
<path d="M22.5 67.5H11.25V78.75H22.5V67.5Z" fill="#444041"/>
<path d="M33.75 67.5H22.5V78.75H33.75V67.5Z" fill="#444041"/>
<path d="M45 67.5H33.75V78.75H45V67.5Z" fill="#444041"/>
<path d="M56.25 67.5H45V78.75H56.25V67.5Z" fill="#444041"/>
<path d="M67.5 67.5H56.25V78.75H67.5V67.5Z" fill="#444041"/>
<path d="M78.75 67.5H67.5V78.75H78.75V67.5Z" fill="#444041"/>
<path d="M90 67.5H78.75V78.75H90V67.5Z" fill="#444041"/>
<path d="M101.25 67.5H90V78.75H101.25V67.5Z" fill="#444041"/>
<path d="M157.5 67.5H146.25V78.75H157.5V67.5Z" fill="#444041"/>
<path d="M168.75 67.5H157.5V78.75H168.75V67.5Z" fill="#444041"/>
<path d="M22.5 78.75H11.25V90H22.5V78.75Z" fill="#444041"/>
<path d="M101.25 78.75H90V90H101.25V78.75Z" fill="#444041"/>
<path d="M168.75 78.75H157.5V90H168.75V78.75Z" fill="#444041"/>
<path d="M22.5 90H11.25V101.25H22.5V90Z" fill="#444041"/>
<path d="M101.25 90H90V101.25H101.25V90Z" fill="#444041"/>
<path d="M168.75 90H157.5V101.25H168.75V90Z" fill="#444041"/>
<path d="M22.5 101.25H11.25V112.5H22.5V101.25Z" fill="#444041"/>
<path d="M33.75 101.25H22.5V112.5H33.75V101.25Z" fill="#444041"/>
<path d="M45 101.25H33.75V112.5H45V101.25Z" fill="#444041"/>
<path d="M56.25 101.25H45V112.5H56.25V101.25Z" fill="#444041"/>
<path d="M67.5 101.25H56.25V112.5H67.5V101.25Z" fill="#444041"/>
<path d="M78.75 101.25H67.5V112.5H78.75V101.25Z" fill="#444041"/>
<path d="M90 101.25H78.75V112.5H90V101.25Z" fill="#444041"/>
<path d="M101.25 101.25H90V112.5H101.25V101.25Z" fill="#444041"/>
<path d="M168.75 101.25H157.5V112.5H168.75V101.25Z" fill="#444041"/>
<path d="M22.5 112.5H11.25V123.75H22.5V112.5Z" fill="#444041"/>
<path d="M67.5 112.5H56.25V123.75H67.5V112.5Z" fill="#444041"/>
<path d="M101.25 112.5H90V123.75H101.25V112.5Z" fill="#444041"/>
<path d="M157.5 11.25H146.25V22.5H157.5V11.25Z" fill="#444041"/>
<path d="M22.5 123.75H11.25V135H22.5V123.75Z" fill="#444041"/>
<path d="M33.75 123.75H22.5V135H33.75V123.75Z" fill="#444041"/>
<path d="M45 123.75H33.75V135H45V123.75Z" fill="#444041"/>
<path d="M56.25 123.75H45V135H56.25V123.75Z" fill="#444041"/>
<path d="M67.5 123.75H56.25V135H67.5V123.75Z" fill="#444041"/>
<path d="M101.25 123.75H90V135H101.25V123.75Z" fill="#444041"/>
<path d="M22.5 135H11.25V146.25H22.5V135Z" fill="#444041"/>
<path d="M67.5 135H56.25V146.25H67.5V135Z" fill="#444041"/>
<path d="M101.25 135H90V146.25H101.25V135Z" fill="#444041"/>
<path d="M22.5 146.25H11.25V157.5H22.5V146.25Z" fill="#444041"/>
<path d="M33.75 146.25H22.5V157.5H33.75V146.25Z" fill="#444041"/>
<path d="M45 146.25H33.75V157.5H45V146.25Z" fill="#444041"/>
<path d="M56.25 146.25H45V157.5H56.25V146.25Z" fill="#444041"/>
<path d="M67.5 146.25H56.25V157.5H67.5V146.25Z" fill="#444041"/>
<path d="M78.75 146.25H67.5V157.5H78.75V146.25Z" fill="#444041"/>
<path d="M90 146.25H78.75V157.5H90V146.25Z" fill="#444041"/>
<path d="M101.25 146.25H90V157.5H101.25V146.25Z" fill="#444041"/>
<path d="M112.5 146.25H101.25V157.5H112.5V146.25Z" fill="#444041"/>
<path d="M135 146.25H123.75V157.5H135V146.25Z" fill="#444041"/>
<path d="M123.75 146.25H112.5V157.5H123.75V146.25Z" fill="#444041"/>
<path d="M146.25 146.25H135V157.5H146.25V146.25Z" fill="#444041"/>
<path d="M157.5 146.25H146.25V157.5H157.5V146.25Z" fill="#444041"/>
<path d="M168.75 146.25H157.5V157.5H168.75V146.25Z" fill="#444041"/>
<path d="M168.75 135H157.5V146.25H168.75V135Z" fill="#444041"/>
<path d="M168.75 123.75H157.5V135H168.75V123.75Z" fill="#444041"/>
<path d="M168.75 112.5H157.5V123.75H168.75V112.5Z" fill="#444041"/>
<path d="M123.75 45H112.5V56.25H123.75V45Z" fill="#444041"/>
<path d="M123.75 45H112.5V56.25H123.75V45Z" fill="#444041"/>
<path d="M135 11.25H123.75V22.5H135V11.25Z" fill="#444041"/>
<path d="M146.25 11.25H135V22.5H146.25V11.25Z" fill="#444041"/>
<path d="M157.5 11.25H146.25V22.5H157.5V11.25Z" fill="#444041"/>
<path d="M168.75 11.25H157.5V22.5H168.75V11.25Z" fill="#444041"/>
<path d="M168.75 22.5H157.5V33.75H168.75V22.5Z" fill="#444041"/>
<path d="M180 22.5H168.75V33.75H180V22.5Z" fill="#444041"/>
<path d="M157.5 22.5H146.25V33.75H157.5V22.5Z" fill="#444041"/>
<path d="M157.5 33.75H146.25V45H157.5V33.75Z" fill="#444041"/>
<path d="M180 33.75H168.75V45H180V33.75Z" fill="#444041"/>
<path d="M168.75 45H157.5V56.25H168.75V45Z" fill="#444041"/>
<path d="M180 45H168.75V56.25H180V45Z" fill="#444041"/>
<path d="M157.5 56.25H146.25V67.5H157.5V56.25Z" fill="#444041"/>
<path d="M168.75 56.25H157.5V67.5H168.75V56.25Z" fill="#444041"/>
<path d="M168.75 56.25H157.5V67.5H168.75V56.25Z" fill="#444041"/>
<path d="M180 56.25H168.75V67.5H180V56.25Z" fill="#444041"/>
<path d="M168.75 67.5H157.5V78.75H168.75V67.5Z" fill="#444041"/>
<path d="M146.25 33.75H135V45H146.25V33.75Z" fill="#444041"/>
<path d="M146.25 45H135V56.25H146.25V45Z" fill="#444041"/>
<path d="M146.25 22.5H135V33.75H146.25V22.5Z" fill="#444041"/>
<path d="M135 22.5H123.75V33.75H135V22.5Z" fill="#444041"/>
<path d="M135 33.75H123.75V45H135V33.75Z" fill="#444041"/>
<path d="M123.75 33.75H112.5V45H123.75V33.75Z" fill="#444041"/>
<path d="M123.75 22.5H112.5V33.75H123.75V22.5Z" fill="#444041"/>
<path d="M135 56.25H123.75V67.5H135V56.25Z" fill="#444041"/>
<path d="M123.75 56.25H112.5V67.5H123.75V56.25Z" fill="#444041"/>
</svg>
