<svg width="1280" height="1280" viewBox="0 0 1280 1280" fill="none" xmlns="http://www.w3.org/2000/svg">
<path d="M555 470H512.5V512.5H555V470Z" fill="white"/>
<path d="M640 470H597.5V512.5H640V470Z" fill="white"/>
<path d="M725 470H682.5V512.5H725V470Z" fill="white"/>
<path d="M810 470H767.5V512.5H810V470Z" fill="white"/>
<path d="M512.5 512.5H470V555H512.5V512.5Z" fill="white"/>
<path d="M597.5 512.5H555V555H597.5V512.5Z" fill="white"/>
<path d="M682.5 512.5H640V555H682.5V512.5Z" fill="white"/>
<path d="M767.5 512.5H725V555H767.5V512.5Z" fill="white"/>
<path d="M810 512.5H767.5V555H810V512.5Z" fill="white"/>
<path d="M852.5 512.5H810V555H852.5V512.5Z" fill="white"/>
<path d="M725 555H682.5V597.5H725V555Z" fill="white"/>
<path d="M767.5 555H725V597.5H767.5V555Z" fill="white"/>
<path d="M810 555H767.5V597.5H810V555Z" fill="white"/>
<path d="M852.5 555H810V597.5H852.5V555Z" fill="white"/>
<path d="M895 555H852.5V597.5H895V555Z" fill="white"/>
<path d="M427.5 597.5H385V640H427.5V597.5Z" fill="white"/>
<path d="M470 597.5H427.5V640H470V597.5Z" fill="white"/>
<path d="M512.5 597.5H470V640H512.5V597.5Z" fill="white"/>
<path d="M555 597.5H512.5V640H555V597.5Z" fill="white"/>
<path d="M597.5 597.5H555V640H597.5V597.5Z" fill="white"/>
<path d="M640 597.5H597.5V640H640V597.5Z" fill="white"/>
<path d="M725 597.5H682.5V640H725V597.5Z" fill="white"/>
<path d="M767.5 597.5H725V640H767.5V597.5Z" fill="white"/>
<path d="M810 597.5H767.5V640H810V597.5Z" fill="white"/>
<path d="M852.5 597.5H810V640H852.5V597.5Z" fill="white"/>
<path d="M895 597.5H852.5V640H895V597.5Z" fill="white"/>
<path d="M427.5 640H385V682.5H427.5V640Z" fill="white"/>
<path d="M470 640H427.5V682.5H470V640Z" fill="white"/>
<path d="M512.5 640H470V682.5H512.5V640Z" fill="white"/>
<path d="M555 640H512.5V682.5H555V640Z" fill="white"/>
<path d="M597.5 640H555V682.5H597.5V640Z" fill="white"/>
<path d="M640 640H597.5V682.5H640V640Z" fill="white"/>
<path d="M725 640H682.5V682.5H725V640Z" fill="white"/>
<path d="M767.5 640H725V682.5H767.5V640Z" fill="white"/>
<path d="M810 640H767.5V682.5H810V640Z" fill="white"/>
<path d="M852.5 640H810V682.5H852.5V640Z" fill="white"/>
<path d="M895 640H852.5V682.5H895V640Z" fill="white"/>
<path d="M725 682.5H682.5V725H725V682.5Z" fill="white"/>
<path d="M767.5 682.5H725V725H767.5V682.5Z" fill="white"/>
<path d="M810 682.5H767.5V725H810V682.5Z" fill="white"/>
<path d="M852.5 682.5H810V725H852.5V682.5Z" fill="white"/>
<path d="M895 682.5H852.5V725H895V682.5Z" fill="white"/>
<path d="M427.5 725H385V767.5H427.5V725Z" fill="white"/>
<path d="M470 725H427.5V767.5H470V725Z" fill="white"/>
<path d="M512.5 725H470V767.5H512.5V725Z" fill="white"/>
<path d="M597.5 725H555V767.5H597.5V725Z" fill="white"/>
<path d="M640 725H597.5V767.5H640V725Z" fill="white"/>
<path d="M725 725H682.5V767.5H725V725Z" fill="white"/>
<path d="M767.5 725H725V767.5H767.5V725Z" fill="white"/>
<path d="M810 725H767.5V767.5H810V725Z" fill="white"/>
<path d="M852.5 725H810V767.5H852.5V725Z" fill="white"/>
<path d="M895 725H852.5V767.5H895V725Z" fill="white"/>
<path d="M597.5 767.5H555V810H597.5V767.5Z" fill="white"/>
<path d="M640 767.5H597.5V810H640V767.5Z" fill="white"/>
<path d="M725 767.5H682.5V810H725V767.5Z" fill="white"/>
<path d="M767.5 767.5H725V810H767.5V767.5Z" fill="white"/>
<path d="M810 767.5H767.5V810H810V767.5Z" fill="white"/>
<path d="M852.5 767.5H810V810H852.5V767.5Z" fill="white"/>
<path d="M895 767.5H852.5V810H895V767.5Z" fill="white"/>
<path d="M427.5 810H385V852.5H427.5V810Z" fill="white"/>
<path d="M470 810H427.5V852.5H470V810Z" fill="white"/>
<path d="M512.5 810H470V852.5H512.5V810Z" fill="white"/>
<path d="M597.5 810H555V852.5H597.5V810Z" fill="white"/>
<path d="M640 810H597.5V852.5H640V810Z" fill="white"/>
<path d="M725 810H682.5V852.5H725V810Z" fill="white"/>
<path d="M767.5 810H725V852.5H767.5V810Z" fill="white"/>
<path d="M810 810H767.5V852.5H810V810Z" fill="white"/>
<path d="M852.5 810H810V852.5H852.5V810Z" fill="white"/>
<path d="M895 810H852.5V852.5H895V810Z" fill="white"/>
<path d="M555 427.5H512.5V470H555V427.5Z" fill="#444041"/>
<path d="M597.5 427.5H555V470H597.5V427.5Z" fill="#444041"/>
<path d="M640 427.5H597.5V470H640V427.5Z" fill="#444041"/>
<path d="M682.5 427.5H640V470H682.5V427.5Z" fill="#444041"/>
<path d="M725 427.5H682.5V470H725V427.5Z" fill="#444041"/>
<path d="M767.5 427.5H725V470H767.5V427.5Z" fill="#444041"/>
<path d="M810 427.5H767.5V470H810V427.5Z" fill="#444041"/>
<path d="M470 470H427.5V512.5H470V470Z" fill="#444041"/>
<path d="M512.5 470H470V512.5H512.5V470Z" fill="#444041"/>
<path d="M512.5 427.5H470V470H512.5V427.5Z" fill="#444041"/>
<path d="M597.5 470H555V512.5H597.5V470Z" fill="#444041"/>
<path d="M682.5 470H640V512.5H682.5V470Z" fill="#444041"/>
<path d="M767.5 470H725V512.5H767.5V470Z" fill="#444041"/>
<path d="M852.5 470H810V512.5H852.5V470Z" fill="#444041"/>
<path d="M427.5 512.5H385V555H427.5V512.5Z" fill="#444041"/>
<path d="M470 512.5H427.5V555H470V512.5Z" fill="#444041"/>
<path d="M555 512.5H512.5V555H555V512.5Z" fill="#444041"/>
<path d="M640 512.5H597.5V555H640V512.5Z" fill="#444041"/>
<path d="M725 512.5H682.5V555H725V512.5Z" fill="#444041"/>
<path d="M895 512.5H852.5V555H895V512.5Z" fill="#444041"/>
<path d="M385 555H342.5V597.5H385V555Z" fill="#444041"/>
<path d="M427.5 555H385V597.5H427.5V555Z" fill="#444041"/>
<path d="M470 555H427.5V597.5H470V555Z" fill="#444041"/>
<path d="M512.5 555H470V597.5H512.5V555Z" fill="#444041"/>
<path d="M555 555H512.5V597.5H555V555Z" fill="#444041"/>
<path d="M597.5 555H555V597.5H597.5V555Z" fill="#444041"/>
<path d="M640 555H597.5V597.5H640V555Z" fill="#444041"/>
<path d="M682.5 555H640V597.5H682.5V555Z" fill="#444041"/>
<path d="M937.5 555H895V597.5H937.5V555Z" fill="#444041"/>
<path d="M385 597.5H342.5V640H385V597.5Z" fill="#444041"/>
<path d="M682.5 597.5H640V640H682.5V597.5Z" fill="#444041"/>
<path d="M937.5 597.5H895V640H937.5V597.5Z" fill="#444041"/>
<path d="M385 640H342.5V682.5H385V640Z" fill="#444041"/>
<path d="M682.5 640H640V682.5H682.5V640Z" fill="#444041"/>
<path d="M937.5 640H895V682.5H937.5V640Z" fill="#444041"/>
<path d="M385 682.5H342.5V725H385V682.5Z" fill="#444041"/>
<path d="M427.5 682.5H385V725H427.5V682.5Z" fill="#444041"/>
<path d="M470 682.5H427.5V725H470V682.5Z" fill="#444041"/>
<path d="M512.5 682.5H470V725H512.5V682.5Z" fill="#444041"/>
<path d="M555 682.5H512.5V725H555V682.5Z" fill="#444041"/>
<path d="M597.5 682.5H555V725H597.5V682.5Z" fill="#444041"/>
<path d="M640 682.5H597.5V725H640V682.5Z" fill="#444041"/>
<path d="M682.5 682.5H640V725H682.5V682.5Z" fill="#444041"/>
<path d="M937.5 682.5H895V725H937.5V682.5Z" fill="#444041"/>
<path d="M385 725H342.5V767.5H385V725Z" fill="#444041"/>
<path d="M555 725H512.5V767.5H555V725Z" fill="#444041"/>
<path d="M682.5 725H640V767.5H682.5V725Z" fill="#444041"/>
<path d="M937.5 725H895V767.5H937.5V725Z" fill="#444041"/>
<path d="M385 767.5H342.5V810H385V767.5Z" fill="#444041"/>
<path d="M427.5 767.5H385V810H427.5V767.5Z" fill="#444041"/>
<path d="M470 767.5H427.5V810H470V767.5Z" fill="#444041"/>
<path d="M512.5 767.5H470V810H512.5V767.5Z" fill="#444041"/>
<path d="M555 767.5H512.5V810H555V767.5Z" fill="#444041"/>
<path d="M682.5 767.5H640V810H682.5V767.5Z" fill="#444041"/>
<path d="M937.5 767.5H895V810H937.5V767.5Z" fill="#444041"/>
<path d="M385 810H342.5V852.5H385V810Z" fill="#444041"/>
<path d="M555 810H512.5V852.5H555V810Z" fill="#444041"/>
<path d="M682.5 810H640V852.5H682.5V810Z" fill="#444041"/>
<path d="M937.5 810H895V852.5H937.5V810Z" fill="#444041"/>
<path d="M385 852.5H342.5V895H385V852.5Z" fill="#444041"/>
<path d="M427.5 852.5H385V895H427.5V852.5Z" fill="#444041"/>
<path d="M470 852.5H427.5V895H470V852.5Z" fill="#444041"/>
<path d="M512.5 852.5H470V895H512.5V852.5Z" fill="#444041"/>
<path d="M555 852.5H512.5V895H555V852.5Z" fill="#444041"/>
<path d="M597.5 852.5H555V895H597.5V852.5Z" fill="#444041"/>
<path d="M640 852.5H597.5V895H640V852.5Z" fill="#444041"/>
<path d="M682.5 852.5H640V895H682.5V852.5Z" fill="#444041"/>
<path d="M725 852.5H682.5V895H725V852.5Z" fill="#444041"/>
<path d="M767.5 852.5H725V895H767.5V852.5Z" fill="#444041"/>
<path d="M810 852.5H767.5V895H810V852.5Z" fill="#444041"/>
<path d="M852.5 852.5H810V895H852.5V852.5Z" fill="#444041"/>
<path d="M895 852.5H852.5V895H895V852.5Z" fill="#444041"/>
<path d="M937.5 852.5H895V895H937.5V852.5Z" fill="#444041"/>
<path d="M808.741 473.778H765.926V515.333H808.741V473.778Z" fill="white"/>
<path d="M894.37 473.778H851.556V515.333H894.37V473.778Z" fill="white"/>
<path d="M851.556 515.333H808.741V556.889H851.556L851.556 515.333Z" fill="white"/>
<path d="M937.185 432.222H894.37V473.778L937.185 473.778V432.222Z" fill="white"/>
<path d="M851.556 556.889H808.741V598.444H851.556V556.889Z" fill="#444041"/>
<path d="M808.741 556.889H765.926V598.444H808.741V556.889Z" fill="#444041"/>
<path d="M765.926 473.778H723.111V515.333H765.926V473.778Z" fill="#444041"/>
<path d="M894.37 556.889H851.556V598.444H894.37V556.889Z" fill="#444041"/>
<path d="M894.37 349.111H851.556V390.667H894.37V349.111Z" fill="#444041"/>
<path d="M765.926 473.778H723.111V515.333H765.926V473.778Z" fill="#444041"/>
<path d="M765.926 473.778H723.111V515.333H765.926V473.778Z" fill="#444041"/>
<path d="M808.741 349.111H765.926V390.667H808.741V349.111Z" fill="#444041"/>
<path d="M851.556 349.111H808.741V390.667H851.556V349.111Z" fill="#444041"/>
<path d="M894.37 349.111H851.556V390.667H894.37V349.111Z" fill="#444041"/>
<path d="M937.185 349.111H894.37V390.667H937.185V349.111Z" fill="#444041"/>
<path d="M937.185 390.667H894.37V432.222H937.185V390.667Z" fill="#444041"/>
<path d="M980 390.667H937.185V432.222H980V390.667Z" fill="#444041"/>
<path d="M894.37 390.667H851.556V432.222H894.37V390.667Z" fill="#444041"/>
<path d="M894.37 432.222H851.556V473.778H894.37V432.222Z" fill="#444041"/>
<path d="M980 432.222H937.185L937.185 473.778H980V432.222Z" fill="#444041"/>
<path d="M937.185 473.778H894.37V515.333H937.185L937.185 473.778Z" fill="#444041"/>
<path d="M980 473.778H937.185L937.185 515.333H980V473.778Z" fill="#444041"/>
<path d="M894.37 515.333L851.556 515.333V556.889H894.37V515.333Z" fill="#444041"/>
<path d="M937.185 515.333H894.37V556.889L937.185 556.889V515.333Z" fill="#444041"/>
<path d="M937.185 515.333H894.37V556.889L937.185 556.889V515.333Z" fill="#444041"/>
<path d="M980 515.333H937.185V556.889H980V515.333Z" fill="#444041"/>
<path d="M937.185 556.889L894.37 556.889V598.444H937.185V556.889Z" fill="#444041"/>
<path d="M851.556 432.222H808.741V473.778H851.556V432.222Z" fill="#444041"/>
<path d="M851.556 473.778H808.741V515.333L851.556 515.333V473.778Z" fill="#444041"/>
<path d="M851.556 390.667H808.741V432.222H851.556V390.667Z" fill="#444041"/>
<path d="M808.741 390.667H765.926V432.222H808.741V390.667Z" fill="#444041"/>
<path d="M808.741 432.222H765.926V473.778L808.741 473.778V432.222Z" fill="#444041"/>
<path d="M765.926 432.222H723.111V473.778H765.926V432.222Z" fill="#444041"/>
<path d="M765.926 390.667H723.111V432.222H765.926V390.667Z" fill="#444041"/>
<path d="M808.741 515.333H765.926V556.889H808.741V515.333Z" fill="#444041"/>
<path d="M765.926 515.333H723.111V556.889L765.926 556.889V515.333Z" fill="#444041"/>
</svg>
