<svg width="24" height="24" viewBox="0 0 24 24" fill="none" xmlns="http://www.w3.org/2000/svg">
<g clip-path="url(#clip0_2410_57506)">
<path d="M12.0765 2.9985H12.21C13.443 3.003 19.6905 3.048 21.375 3.501C21.8842 3.63925 22.3483 3.90873 22.7207 4.28251C23.0932 4.65629 23.361 5.12127 23.4975 5.631C23.649 6.201 23.7555 6.9555 23.8275 7.734L23.8425 7.89L23.8755 8.28L23.8875 8.436C23.985 9.807 23.997 11.091 23.9985 11.3715V11.484C23.997 11.775 23.9835 13.146 23.8755 14.574L23.8635 14.7315L23.85 14.8875C23.775 15.7455 23.664 16.5975 23.4975 17.2245C23.3615 17.7344 23.0938 18.1996 22.7212 18.5735C22.3487 18.9473 21.8844 19.2167 21.375 19.3545C19.635 19.8225 13.0215 19.8555 12.105 19.857H11.892C11.4285 19.857 9.5115 19.848 7.5015 19.779L7.2465 19.77L7.116 19.764L6.8595 19.7535L6.603 19.743C4.938 19.6695 3.3525 19.551 2.622 19.353C2.11273 19.2153 1.6486 18.9462 1.27609 18.5726C0.903575 18.199 0.63577 17.7341 0.4995 17.2245C0.333 16.599 0.222 15.7455 0.147 14.8875L0.135 14.73L0.123 14.574C0.0489714 13.5576 0.0079498 12.5391 0 11.52L0 11.3355C0.003 11.013 0.015 9.8985 0.096 8.6685L0.1065 8.514L0.111 8.436L0.123 8.28L0.156 7.89L0.171 7.734C0.243 6.9555 0.3495 6.1995 0.501 5.631C0.63704 5.12107 0.904743 4.65586 1.27727 4.28202C1.6498 3.90818 2.11405 3.63884 2.6235 3.501C3.354 3.306 4.9395 3.186 6.6045 3.111L6.8595 3.1005L7.1175 3.0915L7.2465 3.087L7.503 3.0765C8.93056 3.03056 10.3587 3.00506 11.787 3H12.0765V2.9985ZM9.6 7.8135V15.0405L15.8355 11.4285L9.6 7.8135Z" fill="black"/>
</g>
<defs>
<clipPath id="clip0_2410_57506">
<rect width="24" height="24" fill="white"/>
</clipPath>
</defs>
</svg>
