<svg width="180" height="180" viewBox="0 0 180 180" fill="none" xmlns="http://www.w3.org/2000/svg">
<path d="M64.6667 33H52V45.5556H64.6667V33Z" fill="white"/>
<path d="M90 33H77.3333V45.5556H90V33Z" fill="white"/>
<path d="M115.333 33H102.667V45.5556H115.333V33Z" fill="white"/>
<path d="M140.667 33H128V45.5556H140.667V33Z" fill="white"/>
<path d="M52 45.5556L39.3333 45.5556V58.1111H52L52 45.5556Z" fill="white"/>
<path d="M77.3333 45.5556H64.6667L64.6667 58.1111H77.3333L77.3333 45.5556Z" fill="white"/>
<path d="M102.667 45.5556H90V58.1111H102.667L102.667 45.5556Z" fill="white"/>
<path d="M128 45.5556H115.333L115.333 58.1111H128L128 45.5556Z" fill="white"/>
<path d="M140.667 45.5556H128L128 58.1111H140.667V45.5556Z" fill="white"/>
<path d="M153.333 45.5556L140.667 45.5556V58.1111H153.333V45.5556Z" fill="white"/>
<path d="M115.333 58.1111H102.667L102.667 70.6667H115.333L115.333 58.1111Z" fill="white"/>
<path d="M128 58.1111H115.333L115.333 70.6667H128V58.1111Z" fill="white"/>
<path d="M140.667 58.1111H128V70.6667H140.667V58.1111Z" fill="white"/>
<path d="M153.333 58.1111H140.667V70.6667H153.333V58.1111Z" fill="white"/>
<path d="M166 58.1111L153.333 58.1111V70.6667H166V58.1111Z" fill="white"/>
<path d="M26.6667 70.6667H14V83.2222H26.6667V70.6667Z" fill="white"/>
<path d="M39.3333 70.6667H26.6667V83.2222H39.3333V70.6667Z" fill="white"/>
<path d="M52 70.6667H39.3333V83.2222H52V70.6667Z" fill="white"/>
<path d="M64.6667 70.6667H52V83.2222H64.6667V70.6667Z" fill="white"/>
<path d="M77.3333 70.6667H64.6667V83.2222H77.3333V70.6667Z" fill="white"/>
<path d="M90 70.6667H77.3333V83.2222H90V70.6667Z" fill="white"/>
<path d="M115.333 70.6667H102.667V83.2222H115.333V70.6667Z" fill="white"/>
<path d="M128 70.6667H115.333V83.2222H128V70.6667Z" fill="white"/>
<path d="M140.667 70.6667H128V83.2222H140.667V70.6667Z" fill="white"/>
<path d="M153.333 70.6667H140.667V83.2222H153.333V70.6667Z" fill="white"/>
<path d="M166 70.6667H153.333V83.2222H166V70.6667Z" fill="white"/>
<path d="M26.6667 83.2222H14V95.7778H26.6667V83.2222Z" fill="white"/>
<path d="M39.3333 83.2222H26.6667V95.7778H39.3333V83.2222Z" fill="white"/>
<path d="M52 83.2222H39.3333V95.7778H52V83.2222Z" fill="white"/>
<path d="M64.6667 83.2222H52V95.7778H64.6667V83.2222Z" fill="white"/>
<path d="M77.3333 83.2222H64.6667V95.7778H77.3333V83.2222Z" fill="white"/>
<path d="M90 83.2222H77.3333V95.7778H90V83.2222Z" fill="white"/>
<path d="M115.333 83.2222H102.667V95.7778H115.333V83.2222Z" fill="white"/>
<path d="M128 83.2222H115.333V95.7778H128V83.2222Z" fill="white"/>
<path d="M140.667 83.2222H128V95.7778H140.667V83.2222Z" fill="white"/>
<path d="M153.333 83.2222H140.667V95.7778H153.333V83.2222Z" fill="white"/>
<path d="M166 83.2222H153.333V95.7778H166V83.2222Z" fill="white"/>
<path d="M115.333 95.7778H102.667V108.333H115.333V95.7778Z" fill="white"/>
<path d="M128 95.7778H115.333V108.333H128V95.7778Z" fill="white"/>
<path d="M140.667 95.7778H128V108.333H140.667V95.7778Z" fill="white"/>
<path d="M153.333 95.7778H140.667V108.333H153.333V95.7778Z" fill="white"/>
<path d="M166 95.7778H153.333V108.333H166V95.7778Z" fill="white"/>
<path d="M26.6667 108.333H14V120.889H26.6667V108.333Z" fill="white"/>
<path d="M39.3333 108.333H26.6667V120.889H39.3333V108.333Z" fill="white"/>
<path d="M52 108.333H39.3333V120.889H52V108.333Z" fill="white"/>
<path d="M77.3333 108.333H64.6667V120.889H77.3333V108.333Z" fill="white"/>
<path d="M90 108.333H77.3333V120.889H90V108.333Z" fill="white"/>
<path d="M115.333 108.333H102.667V120.889H115.333V108.333Z" fill="white"/>
<path d="M128 108.333H115.333V120.889H128V108.333Z" fill="white"/>
<path d="M140.667 108.333H128V120.889H140.667V108.333Z" fill="white"/>
<path d="M153.333 108.333H140.667V120.889H153.333V108.333Z" fill="white"/>
<path d="M166 108.333H153.333V120.889H166V108.333Z" fill="white"/>
<path d="M77.3333 120.889H64.6667V133.444H77.3333V120.889Z" fill="white"/>
<path d="M90 120.889H77.3333V133.444H90V120.889Z" fill="white"/>
<path d="M115.333 120.889H102.667V133.444H115.333V120.889Z" fill="white"/>
<path d="M128 120.889H115.333V133.444H128V120.889Z" fill="white"/>
<path d="M140.667 120.889H128V133.444H140.667V120.889Z" fill="white"/>
<path d="M153.333 120.889H140.667V133.444H153.333V120.889Z" fill="white"/>
<path d="M166 120.889H153.333V133.444H166V120.889Z" fill="white"/>
<path d="M26.6667 133.444H14V146H26.6667V133.444Z" fill="white"/>
<path d="M39.3333 133.444H26.6667V146H39.3333V133.444Z" fill="white"/>
<path d="M52 133.444H39.3333V146H52V133.444Z" fill="white"/>
<path d="M77.3333 133.444H64.6667V146H77.3333V133.444Z" fill="white"/>
<path d="M90 133.444H77.3333V146H90V133.444Z" fill="white"/>
<path d="M115.333 133.444H102.667V146H115.333V133.444Z" fill="white"/>
<path d="M128 133.444H115.333V146H128V133.444Z" fill="white"/>
<path d="M140.667 133.444H128V146H140.667V133.444Z" fill="white"/>
<path d="M153.333 133.444H140.667V146H153.333V133.444Z" fill="white"/>
<path d="M166 133.444H153.333V146H166V133.444Z" fill="white"/>
<path d="M64.5714 20H51.8571V32.6364H64.5714V20Z" fill="#444041"/>
<path d="M77.2857 20H64.5714V32.6364H77.2857V20Z" fill="#444041"/>
<path d="M90 20H77.2857V32.6364H90V20Z" fill="#444041"/>
<path d="M102.714 20H90V32.6364H102.714V20Z" fill="#444041"/>
<path d="M115.429 20H102.714V32.6364H115.429V20Z" fill="#444041"/>
<path d="M128.143 20H115.429V32.6364H128.143V20Z" fill="#444041"/>
<path d="M140.857 20H128.143V32.6364H140.857V20Z" fill="#444041"/>
<path d="M39.1429 32.6364H26.4286V45.2727H39.1429V32.6364Z" fill="#444041"/>
<path d="M51.8571 32.6364L39.1429 32.6364V45.2727H51.8571L51.8571 32.6364Z" fill="#444041"/>
<path d="M51.8571 20H39.1429L39.1429 32.6364L51.8571 32.6364V20Z" fill="#444041"/>
<path d="M77.2857 32.6364H64.5714L64.5714 45.2727H77.2857V32.6364Z" fill="#444041"/>
<path d="M102.714 32.6364H90L90 45.2727H102.714V32.6364Z" fill="#444041"/>
<path d="M128.143 32.6364H115.429L115.429 45.2727H128.143V32.6364Z" fill="#444041"/>
<path d="M153.571 32.6364L140.857 32.6364V45.2727H153.571V32.6364Z" fill="#444041"/>
<path d="M26.4286 45.2727L13.7143 45.2727V57.9091H26.4286L26.4286 45.2727Z" fill="#444041"/>
<path d="M39.1429 45.2727H26.4286L26.4286 57.9091H39.1429V45.2727Z" fill="#444041"/>
<path d="M64.5714 45.2727H51.8571L51.8571 57.9091H64.5714L64.5714 45.2727Z" fill="#444041"/>
<path d="M90 45.2727H77.2857L77.2857 57.9091H90L90 45.2727Z" fill="#444041"/>
<path d="M115.429 45.2727H102.714L102.714 57.9091H115.429L115.429 45.2727Z" fill="#444041"/>
<path d="M166.286 45.2727L153.571 45.2727L153.571 57.9091H166.286V45.2727Z" fill="#444041"/>
<path d="M13.7143 57.9091L1 57.9091V70.5455H13.7143L13.7143 57.9091Z" fill="#444041"/>
<path d="M26.4286 57.9091H13.7143L13.7143 70.5455H26.4286V57.9091Z" fill="#444041"/>
<path d="M39.1429 57.9091H26.4286V70.5455H39.1429V57.9091Z" fill="#444041"/>
<path d="M51.8571 57.9091H39.1429V70.5455H51.8571L51.8571 57.9091Z" fill="#444041"/>
<path d="M64.5714 57.9091H51.8571L51.8571 70.5455H64.5714V57.9091Z" fill="#444041"/>
<path d="M77.2857 57.9091H64.5714V70.5455H77.2857L77.2857 57.9091Z" fill="#444041"/>
<path d="M90 57.9091H77.2857L77.2857 70.5455H90V57.9091Z" fill="#444041"/>
<path d="M102.714 57.9091H90V70.5455H102.714L102.714 57.9091Z" fill="#444041"/>
<path d="M179 57.9091L166.286 57.9091L166.286 70.5455H179V57.9091Z" fill="#444041"/>
<path d="M13.7143 70.5455H1V83.1818H13.7143V70.5455Z" fill="#444041"/>
<path d="M102.714 70.5455H90L90 83.1818H102.714V70.5455Z" fill="#444041"/>
<path d="M179 70.5455H166.286V83.1818H179V70.5455Z" fill="#444041"/>
<path d="M13.7143 83.1818H1V95.8182H13.7143V83.1818Z" fill="#444041"/>
<path d="M102.714 83.1818H90V95.8182H102.714V83.1818Z" fill="#444041"/>
<path d="M179 83.1818H166.286V95.8182H179V83.1818Z" fill="#444041"/>
<path d="M13.7143 95.8182H1V108.455H13.7143V95.8182Z" fill="#444041"/>
<path d="M26.4286 95.8182L13.7143 95.8182V108.455H26.4286V95.8182Z" fill="#444041"/>
<path d="M39.1429 95.8182H26.4286V108.455H39.1429V95.8182Z" fill="#444041"/>
<path d="M51.8571 95.8182H39.1429V108.455H51.8571V95.8182Z" fill="#444041"/>
<path d="M64.5714 95.8182H51.8571V108.455H64.5714V95.8182Z" fill="#444041"/>
<path d="M77.2857 95.8182H64.5714V108.455H77.2857V95.8182Z" fill="#444041"/>
<path d="M90 95.8182L77.2857 95.8182V108.455H90L90 95.8182Z" fill="#444041"/>
<path d="M102.714 95.8182H90L90 108.455H102.714V95.8182Z" fill="#444041"/>
<path d="M179 95.8182H166.286V108.455H179V95.8182Z" fill="#444041"/>
<path d="M13.7143 108.455H1V121.091H13.7143V108.455Z" fill="#444041"/>
<path d="M64.5714 108.455H51.8571L51.8571 121.091H64.5714V108.455Z" fill="#444041"/>
<path d="M102.714 108.455H90L90 121.091H102.714V108.455Z" fill="#444041"/>
<path d="M179 108.455H166.286V121.091H179V108.455Z" fill="#444041"/>
<path d="M13.7143 121.091H1V133.727H13.7143V121.091Z" fill="#444041"/>
<path d="M26.4286 121.091L13.7143 121.091V133.727H26.4286V121.091Z" fill="#444041"/>
<path d="M39.1429 121.091H26.4286V133.727H39.1429V121.091Z" fill="#444041"/>
<path d="M51.8571 121.091L39.1429 121.091V133.727H51.8571L51.8571 121.091Z" fill="#444041"/>
<path d="M64.5714 121.091H51.8571L51.8571 133.727H64.5714V121.091Z" fill="#444041"/>
<path d="M102.714 121.091H90V133.727H102.714V121.091Z" fill="#444041"/>
<path d="M179 121.091H166.286V133.727H179V121.091Z" fill="#444041"/>
<path d="M13.7143 133.727H1V146.364H13.7143V133.727Z" fill="#444041"/>
<path d="M64.5714 133.727H51.8571L51.8571 146.364H64.5714V133.727Z" fill="#444041"/>
<path d="M102.714 133.727H90V146.364H102.714V133.727Z" fill="#444041"/>
<path d="M179 133.727H166.286V146.364H179V133.727Z" fill="#444041"/>
<path d="M13.7143 146.364H1V159H13.7143V146.364Z" fill="#444041"/>
<path d="M26.4286 146.364L13.7143 146.364V159H26.4286V146.364Z" fill="#444041"/>
<path d="M39.1429 146.364H26.4286V159H39.1429V146.364Z" fill="#444041"/>
<path d="M51.8571 146.364L39.1429 146.364V159H51.8571L51.8571 146.364Z" fill="#444041"/>
<path d="M64.5714 146.364H51.8571L51.8571 159H64.5714V146.364Z" fill="#444041"/>
<path d="M77.2857 146.364L64.5714 146.364V159H77.2857V146.364Z" fill="#444041"/>
<path d="M90 146.364L77.2857 146.364V159H90L90 146.364Z" fill="#444041"/>
<path d="M102.714 146.364H90L90 159H102.714V146.364Z" fill="#444041"/>
<path d="M115.429 146.364L102.714 146.364V159H115.429V146.364Z" fill="#444041"/>
<path d="M128.143 146.364H115.429V159H128.143V146.364Z" fill="#444041"/>
<path d="M140.857 146.364H128.143V159H140.857V146.364Z" fill="#444041"/>
<path d="M153.571 146.364H140.857V159H153.571V146.364Z" fill="#444041"/>
<path d="M166.286 146.364L153.571 146.364V159H166.286L166.286 146.364Z" fill="#444041"/>
<path d="M179 146.364H166.286L166.286 159H179V146.364Z" fill="#444041"/>
</svg>
