<svg width="16" height="16" viewBox="0 0 16 16" fill="none" xmlns="http://www.w3.org/2000/svg">
<path d="M6 3H5V4H6V3Z" fill="#444041"/>
<path d="M7 3H6V4H7V3Z" fill="#444041"/>
<path d="M8 3H7V4H8V3Z" fill="#444041"/>
<path d="M9 3H8V4H9V3Z" fill="#444041"/>
<path d="M10 3H9V4H10V3Z" fill="#444041"/>
<path d="M11 3H10V4H11V3Z" fill="#444041"/>
<path d="M12 3H11V4H12V3Z" fill="#444041"/>
<path d="M4 4H3V5H4V4Z" fill="#444041"/>
<path d="M5 4L4 4V5H5L5 4Z" fill="#444041"/>
<path d="M5 3H4L4 4L5 4V3Z" fill="#444041"/>
<path d="M7 4H6L6 5H7V4Z" fill="#444041"/>
<path d="M9 4H8L8 5H9V4Z" fill="#444041"/>
<path d="M11 4H10L10 5H11V4Z" fill="#444041"/>
<path d="M13 4L12 4V5H13V4Z" fill="#444041"/>
<path d="M3 5L2 5V6H3L3 5Z" fill="#444041"/>
<path d="M4 5H3L3 6H4V5Z" fill="#444041"/>
<path d="M6 5H5L5 6H6L6 5Z" fill="#444041"/>
<path d="M8 5H7L7 6H8L8 5Z" fill="#444041"/>
<path d="M10 5H9L9 6H10L10 5Z" fill="#444041"/>
<path d="M14 5L13 5L13 6H14V5Z" fill="#444041"/>
<path d="M2 6L1 6V7H2L2 6Z" fill="#444041"/>
<path d="M3 6H2L2 7H3V6Z" fill="#444041"/>
<path d="M4 6H3V7H4V6Z" fill="#444041"/>
<path d="M5 6H4V7H5L5 6Z" fill="#444041"/>
<path d="M6 6H5L5 7H6V6Z" fill="#444041"/>
<path d="M7 6H6V7H7L7 6Z" fill="#444041"/>
<path d="M8 6H7L7 7H8V6Z" fill="#444041"/>
<path d="M9 6H8V7H9L9 6Z" fill="#444041"/>
<path d="M15 6L14 6L14 7H15V6Z" fill="#444041"/>
<path d="M2 7H1V8H2V7Z" fill="#444041"/>
<path d="M9 7H8L8 8H9V7Z" fill="#444041"/>
<path d="M15 7H14V8H15V7Z" fill="#444041"/>
<path d="M2 8H1V9H2V8Z" fill="#444041"/>
<path d="M9 8H8V9H9V8Z" fill="#444041"/>
<path d="M15 8H14V9H15V8Z" fill="#444041"/>
<path d="M2 9H1V10H2V9Z" fill="#444041"/>
<path d="M3 9L2 9V10H3V9Z" fill="#444041"/>
<path d="M4 9H3V10H4V9Z" fill="#444041"/>
<path d="M5 9H4V10H5V9Z" fill="#444041"/>
<path d="M6 9H5V10H6V9Z" fill="#444041"/>
<path d="M7 9H6V10H7V9Z" fill="#444041"/>
<path d="M8 9L7 9V10H8L8 9Z" fill="#444041"/>
<path d="M9 9H8L8 10H9V9Z" fill="#444041"/>
<path d="M15 9H14V10H15V9Z" fill="#444041"/>
<path d="M2 10H1V11H2V10Z" fill="#444041"/>
<path d="M6 10H5L5 11H6V10Z" fill="#444041"/>
<path d="M9 10H8L8 11H9V10Z" fill="#444041"/>
<path d="M15 10H14V11H15V10Z" fill="#444041"/>
<path d="M2 11H1V12H2V11Z" fill="#444041"/>
<path d="M3 11L2 11V12H3V11Z" fill="#444041"/>
<path d="M4 11H3V12H4V11Z" fill="#444041"/>
<path d="M5 11L4 11V12H5L5 11Z" fill="#444041"/>
<path d="M6 11H5L5 12H6V11Z" fill="#444041"/>
<path d="M9 11H8V12H9V11Z" fill="#444041"/>
<path d="M15 11H14V12H15V11Z" fill="#444041"/>
<path d="M2 12H1V13H2V12Z" fill="#444041"/>
<path d="M6 12H5L5 13H6V12Z" fill="#444041"/>
<path d="M9 12H8V13H9V12Z" fill="#444041"/>
<path d="M15 12H14V13H15V12Z" fill="#444041"/>
<path d="M2 13H1V14H2V13Z" fill="#444041"/>
<path d="M3 13L2 13V14H3V13Z" fill="#444041"/>
<path d="M4 13H3V14H4V13Z" fill="#444041"/>
<path d="M5 13L4 13V14H5L5 13Z" fill="#444041"/>
<path d="M6 13H5L5 14H6V13Z" fill="#444041"/>
<path d="M7 13L6 13V14H7V13Z" fill="#444041"/>
<path d="M8 13L7 13V14H8L8 13Z" fill="#444041"/>
<path d="M9 13H8L8 14H9V13Z" fill="#444041"/>
<path d="M10 13L9 13V14H10V13Z" fill="#444041"/>
<path d="M11 13H10V14H11V13Z" fill="#444041"/>
<path d="M12 13H11V14H12V13Z" fill="#444041"/>
<path d="M13 13H12V14H13V13Z" fill="#444041"/>
<path d="M14 13L13 13V14H14L14 13Z" fill="#444041"/>
<path d="M15 13H14L14 14H15V13Z" fill="#444041"/>
</svg>
