<svg width="180" height="180" viewBox="0 0 180 180" fill="none" xmlns="http://www.w3.org/2000/svg">
<path d="M71.1429 47.3636H61.7143V56.7273H71.1429V47.3636Z" fill="white"/>
<path d="M90 47.3636H80.5714V56.7273H90V47.3636Z" fill="white"/>
<path d="M108.857 47.3636H99.4286V56.7273H108.857V47.3636Z" fill="white"/>
<path d="M127.714 47.3636H118.286V56.7273H127.714V47.3636Z" fill="white"/>
<path d="M61.7143 56.7273L52.2857 56.7273V66.0909H61.7143L61.7143 56.7273Z" fill="white"/>
<path d="M80.5714 56.7273H71.1429L71.1429 66.0909H80.5714L80.5714 56.7273Z" fill="white"/>
<path d="M99.4286 56.7273H90V66.0909H99.4286V56.7273Z" fill="white"/>
<path d="M118.286 56.7273H108.857L108.857 66.0909H118.286L118.286 56.7273Z" fill="white"/>
<path d="M127.714 56.7273H118.286L118.286 66.0909H127.714V56.7273Z" fill="white"/>
<path d="M137.143 56.7273L127.714 56.7273V66.0909H137.143V56.7273Z" fill="white"/>
<path d="M108.857 66.0909H99.4286V75.4546H108.857L108.857 66.0909Z" fill="white"/>
<path d="M118.286 66.0909H108.857L108.857 75.4546H118.286V66.0909Z" fill="white"/>
<path d="M127.714 66.0909H118.286V75.4546H127.714V66.0909Z" fill="white"/>
<path d="M137.143 66.0909H127.714V75.4546H137.143V66.0909Z" fill="white"/>
<path d="M146.571 66.0909L137.143 66.0909V75.4546H146.571V66.0909Z" fill="white"/>
<path d="M42.8572 75.4546H33.4286V84.8182H42.8572V75.4546Z" fill="white"/>
<path d="M52.2857 75.4546H42.8572V84.8182H52.2857V75.4546Z" fill="white"/>
<path d="M61.7143 75.4546H52.2857V84.8182H61.7143V75.4546Z" fill="white"/>
<path d="M71.1429 75.4546H61.7143V84.8182H71.1429V75.4546Z" fill="white"/>
<path d="M80.5714 75.4546H71.1429V84.8182H80.5714V75.4546Z" fill="white"/>
<path d="M90 75.4546H80.5714V84.8182H90V75.4546Z" fill="white"/>
<path d="M108.857 75.4546H99.4286V84.8182H108.857V75.4546Z" fill="white"/>
<path d="M118.286 75.4546H108.857V84.8182H118.286V75.4546Z" fill="white"/>
<path d="M127.714 75.4546H118.286V84.8182H127.714V75.4546Z" fill="white"/>
<path d="M137.143 75.4546H127.714V84.8182H137.143V75.4546Z" fill="white"/>
<path d="M146.571 75.4546H137.143V84.8182H146.571V75.4546Z" fill="white"/>
<path d="M42.8572 84.8182H33.4286V94.1818H42.8572V84.8182Z" fill="white"/>
<path d="M52.2857 84.8182H42.8572V94.1818H52.2857V84.8182Z" fill="white"/>
<path d="M61.7143 84.8182H52.2857V94.1818H61.7143V84.8182Z" fill="white"/>
<path d="M71.1429 84.8182H61.7143V94.1818H71.1429V84.8182Z" fill="white"/>
<path d="M80.5714 84.8182H71.1429V94.1818H80.5714V84.8182Z" fill="white"/>
<path d="M90 84.8182H80.5714V94.1818H90V84.8182Z" fill="white"/>
<path d="M108.857 84.8182H99.4286V94.1818H108.857V84.8182Z" fill="white"/>
<path d="M118.286 84.8182H108.857V94.1818H118.286V84.8182Z" fill="white"/>
<path d="M127.714 84.8182H118.286V94.1818H127.714V84.8182Z" fill="white"/>
<path d="M137.143 84.8182H127.714V94.1818H137.143V84.8182Z" fill="white"/>
<path d="M146.571 84.8182H137.143V94.1818H146.571V84.8182Z" fill="white"/>
<path d="M108.857 94.1818H99.4286V103.545H108.857V94.1818Z" fill="white"/>
<path d="M118.286 94.1818H108.857V103.545H118.286V94.1818Z" fill="white"/>
<path d="M127.714 94.1818H118.286V103.545H127.714V94.1818Z" fill="white"/>
<path d="M137.143 94.1818H127.714V103.545H137.143V94.1818Z" fill="white"/>
<path d="M146.571 94.1818H137.143V103.545H146.571V94.1818Z" fill="white"/>
<path d="M42.8572 103.545H33.4286V112.909H42.8572V103.545Z" fill="white"/>
<path d="M52.2857 103.545H42.8572V112.909H52.2857V103.545Z" fill="white"/>
<path d="M61.7143 103.545H52.2857V112.909H61.7143V103.545Z" fill="white"/>
<path d="M80.5714 103.545H71.1429V112.909H80.5714V103.545Z" fill="white"/>
<path d="M90 103.545H80.5714V112.909H90V103.545Z" fill="white"/>
<path d="M108.857 103.545H99.4286V112.909H108.857V103.545Z" fill="white"/>
<path d="M118.286 103.545H108.857V112.909H118.286V103.545Z" fill="white"/>
<path d="M127.714 103.545H118.286V112.909H127.714V103.545Z" fill="white"/>
<path d="M137.143 103.545H127.714V112.909H137.143V103.545Z" fill="white"/>
<path d="M146.571 103.545H137.143V112.909H146.571V103.545Z" fill="white"/>
<path d="M80.5714 112.909H71.1429V122.273H80.5714V112.909Z" fill="white"/>
<path d="M90 112.909H80.5714V122.273H90V112.909Z" fill="white"/>
<path d="M108.857 112.909H99.4286V122.273H108.857V112.909Z" fill="white"/>
<path d="M118.286 112.909H108.857V122.273H118.286V112.909Z" fill="white"/>
<path d="M127.714 112.909H118.286V122.273H127.714V112.909Z" fill="white"/>
<path d="M137.143 112.909H127.714V122.273H137.143V112.909Z" fill="white"/>
<path d="M146.571 112.909H137.143V122.273H146.571V112.909Z" fill="white"/>
<path d="M42.8572 122.273H33.4286V131.636H42.8572V122.273Z" fill="white"/>
<path d="M52.2857 122.273H42.8572V131.636H52.2857V122.273Z" fill="white"/>
<path d="M61.7143 122.273H52.2857V131.636H61.7143V122.273Z" fill="white"/>
<path d="M80.5714 122.273H71.1429V131.636H80.5714V122.273Z" fill="white"/>
<path d="M90 122.273H80.5714V131.636H90V122.273Z" fill="white"/>
<path d="M108.857 122.273H99.4286V131.636H108.857V122.273Z" fill="white"/>
<path d="M118.286 122.273H108.857V131.636H118.286V122.273Z" fill="white"/>
<path d="M127.714 122.273H118.286V131.636H127.714V122.273Z" fill="white"/>
<path d="M137.143 122.273H127.714V131.636H137.143V122.273Z" fill="white"/>
<path d="M146.571 122.273H137.143V131.636H146.571V122.273Z" fill="white"/>
<path d="M71.1429 38H61.7143V47.3636H71.1429V38Z" fill="black"/>
<path d="M80.5714 38H71.1429V47.3636H80.5714V38Z" fill="black"/>
<path d="M90 38H80.5714V47.3636H90V38Z" fill="black"/>
<path d="M99.4286 38H90V47.3636H99.4286V38Z" fill="black"/>
<path d="M108.857 38H99.4286V47.3636H108.857V38Z" fill="black"/>
<path d="M118.286 38H108.857V47.3636H118.286V38Z" fill="black"/>
<path d="M127.714 38H118.286V47.3636H127.714V38Z" fill="black"/>
<path d="M52.2857 47.3636H42.8571V56.7273H52.2857V47.3636Z" fill="black"/>
<path d="M61.7143 47.3636L52.2857 47.3636V56.7273H61.7143L61.7143 47.3636Z" fill="black"/>
<path d="M61.7143 38H52.2857L52.2857 47.3636L61.7143 47.3636V38Z" fill="black"/>
<path d="M80.5714 47.3636H71.1429L71.1429 56.7273H80.5714V47.3636Z" fill="black"/>
<path d="M99.4286 47.3636H90L90 56.7273H99.4286V47.3636Z" fill="black"/>
<path d="M118.286 47.3636H108.857V56.7273H118.286V47.3636Z" fill="black"/>
<path d="M137.143 47.3636L127.714 47.3636V56.7273H137.143V47.3636Z" fill="black"/>
<path d="M42.8571 56.7273L33.4286 56.7273V66.0909H42.8571L42.8571 56.7273Z" fill="black"/>
<path d="M52.2857 56.7273H42.8571L42.8571 66.0909H52.2857V56.7273Z" fill="black"/>
<path d="M71.1429 56.7273H61.7143L61.7143 66.0909H71.1429L71.1429 56.7273Z" fill="black"/>
<path d="M90 56.7273H80.5714L80.5714 66.0909H90L90 56.7273Z" fill="black"/>
<path d="M108.857 56.7273H99.4286L99.4286 66.0909H108.857V56.7273Z" fill="black"/>
<path d="M146.571 56.7273L137.143 56.7273L137.143 66.0909H146.571V56.7273Z" fill="black"/>
<path d="M33.4286 66.0909L24 66.0909V75.4545H33.4286L33.4286 66.0909Z" fill="black"/>
<path d="M42.8571 66.0909H33.4286L33.4286 75.4545H42.8571V66.0909Z" fill="black"/>
<path d="M52.2857 66.0909H42.8571V75.4545H52.2857V66.0909Z" fill="black"/>
<path d="M61.7143 66.0909H52.2857V75.4545H61.7143L61.7143 66.0909Z" fill="black"/>
<path d="M71.1429 66.0909H61.7143L61.7143 75.4545H71.1429V66.0909Z" fill="black"/>
<path d="M80.5714 66.0909H71.1429V75.4545H80.5714L80.5714 66.0909Z" fill="black"/>
<path d="M90 66.0909H80.5714L80.5714 75.4545H90V66.0909Z" fill="black"/>
<path d="M99.4286 66.0909H90V75.4545H99.4286L99.4286 66.0909Z" fill="black"/>
<path d="M156 66.0909L146.571 66.0909L146.571 75.4545H156V66.0909Z" fill="black"/>
<path d="M33.4286 75.4545H24V84.8182H33.4286V75.4545Z" fill="black"/>
<path d="M99.4286 75.4545H90L90 84.8182H99.4286V75.4545Z" fill="black"/>
<path d="M156 75.4545H146.571V84.8182H156V75.4545Z" fill="black"/>
<path d="M33.4286 84.8182H24V94.1818H33.4286V84.8182Z" fill="black"/>
<path d="M99.4286 84.8182H90V94.1818H99.4286V84.8182Z" fill="black"/>
<path d="M156 84.8182H146.571V94.1818H156V84.8182Z" fill="black"/>
<path d="M33.4286 94.1818H24V103.545H33.4286V94.1818Z" fill="black"/>
<path d="M42.8571 94.1818L33.4286 94.1818V103.545H42.8571V94.1818Z" fill="black"/>
<path d="M52.2857 94.1818H42.8571V103.545H52.2857V94.1818Z" fill="black"/>
<path d="M61.7143 94.1818H52.2857V103.545H61.7143V94.1818Z" fill="black"/>
<path d="M71.1429 94.1818H61.7143V103.545H71.1429V94.1818Z" fill="black"/>
<path d="M80.5714 94.1818H71.1429V103.545H80.5714V94.1818Z" fill="black"/>
<path d="M90 94.1818L80.5714 94.1818V103.545H90L90 94.1818Z" fill="black"/>
<path d="M99.4286 94.1818H90L90 103.545H99.4286V94.1818Z" fill="black"/>
<path d="M156 94.1818H146.571V103.545H156V94.1818Z" fill="black"/>
<path d="M33.4286 103.545H24V112.909H33.4286V103.545Z" fill="black"/>
<path d="M71.1429 103.545H61.7143L61.7143 112.909H71.1429V103.545Z" fill="black"/>
<path d="M99.4286 103.545H90L90 112.909H99.4286V103.545Z" fill="black"/>
<path d="M156 103.545H146.571V112.909H156V103.545Z" fill="black"/>
<path d="M33.4286 112.909H24V122.273H33.4286V112.909Z" fill="black"/>
<path d="M42.8571 112.909L33.4286 112.909V122.273H42.8571V112.909Z" fill="black"/>
<path d="M52.2857 112.909H42.8571V122.273H52.2857V112.909Z" fill="black"/>
<path d="M61.7143 112.909L52.2857 112.909V122.273H61.7143L61.7143 112.909Z" fill="black"/>
<path d="M71.1429 112.909H61.7143L61.7143 122.273H71.1429V112.909Z" fill="black"/>
<path d="M99.4286 112.909H90V122.273H99.4286V112.909Z" fill="black"/>
<path d="M156 112.909H146.571V122.273H156V112.909Z" fill="black"/>
<path d="M33.4286 122.273H24V131.636H33.4286V122.273Z" fill="black"/>
<path d="M71.1429 122.273H61.7143L61.7143 131.636H71.1429V122.273Z" fill="black"/>
<path d="M99.4286 122.273H90V131.636H99.4286V122.273Z" fill="black"/>
<path d="M156 122.273H146.571V131.636H156V122.273Z" fill="black"/>
<path d="M33.4286 131.636H24V141H33.4286V131.636Z" fill="black"/>
<path d="M42.8571 131.636L33.4286 131.636V141H42.8571V131.636Z" fill="black"/>
<path d="M52.2857 131.636H42.8571V141H52.2857V131.636Z" fill="black"/>
<path d="M61.7143 131.636L52.2857 131.636V141H61.7143L61.7143 131.636Z" fill="black"/>
<path d="M71.1429 131.636H61.7143L61.7143 141H71.1429V131.636Z" fill="black"/>
<path d="M80.5714 131.636L71.1429 131.636V141H80.5714V131.636Z" fill="black"/>
<path d="M90 131.636L80.5714 131.636V141H90L90 131.636Z" fill="black"/>
<path d="M99.4286 131.636H90L90 141H99.4286V131.636Z" fill="black"/>
<path d="M108.857 131.636L99.4286 131.636V141H108.857V131.636Z" fill="black"/>
<path d="M118.286 131.636H108.857V141H118.286V131.636Z" fill="black"/>
<path d="M127.714 131.636H118.286V141H127.714V131.636Z" fill="black"/>
<path d="M137.143 131.636H127.714V141H137.143V131.636Z" fill="black"/>
<path d="M146.571 131.636L137.143 131.636V141H146.571L146.571 131.636Z" fill="black"/>
<path d="M156 131.636H146.571L146.571 141H156V131.636Z" fill="black"/>
</svg>
