<svg width="16" height="16" viewBox="0 0 16 16" fill="none" xmlns="http://www.w3.org/2000/svg">
<path d="M5.73966 1.77783H4.6095V2.90106H5.73966V1.77783Z" fill="black"/>
<path d="M6.86982 1.77783H5.73966V2.90106H6.86982V1.77783Z" fill="black"/>
<path d="M7.99998 1.77783H6.86982V2.90106H7.99998V1.77783Z" fill="black"/>
<path d="M9.13014 1.77783H7.99998V2.90106H9.13014V1.77783Z" fill="black"/>
<path d="M10.2603 1.77783H9.13014V2.90106H10.2603V1.77783Z" fill="black"/>
<path d="M11.3905 1.77783H10.2603V2.90106H11.3905V1.77783Z" fill="black"/>
<path d="M12.5206 1.77783H11.3905V2.90106H12.5206V1.77783Z" fill="black"/>
<path d="M3.47934 2.90106H2.34918V4.0243H3.47934V2.90106Z" fill="black"/>
<path d="M4.6095 2.90106L3.47934 2.90106V4.0243H4.6095L4.6095 2.90106Z" fill="black"/>
<path d="M4.6095 1.77783H3.47934L3.47934 2.90106L4.6095 2.90106V1.77783Z" fill="black"/>
<path d="M6.86982 2.90106H5.73966L5.73966 4.0243H6.86982V2.90106Z" fill="black"/>
<path d="M9.13014 2.90106H7.99998L7.99998 4.0243H9.13014V2.90106Z" fill="black"/>
<path d="M11.3905 2.90106H10.2603L10.2603 4.0243H11.3905V2.90106Z" fill="black"/>
<path d="M13.6508 2.90106L12.5206 2.90106V4.0243H13.6508V2.90106Z" fill="black"/>
<path d="M2.34918 4.0243L1.21903 4.0243V5.14753H2.34919L2.34918 4.0243Z" fill="black"/>
<path d="M3.47934 4.0243H2.34918L2.34919 5.14753H3.47934V4.0243Z" fill="black"/>
<path d="M5.73966 4.0243H4.6095L4.6095 5.14753H5.73966L5.73966 4.0243Z" fill="black"/>
<path d="M7.99998 4.0243H6.86982L6.86982 5.14753H7.99998L7.99998 4.0243Z" fill="black"/>
<path d="M10.2603 4.0243H9.13014L9.13014 5.14753H10.2603L10.2603 4.0243Z" fill="black"/>
<path d="M14.7809 4.0243L13.6508 4.0243L13.6508 5.14753H14.7809V4.0243Z" fill="black"/>
<path d="M1.21903 5.14753L0.0888672 5.14753V6.27076H1.21903L1.21903 5.14753Z" fill="black"/>
<path d="M2.34919 5.14753H1.21903L1.21903 6.27076H2.34919V5.14753Z" fill="black"/>
<path d="M3.47934 5.14753H2.34919V6.27076H3.47934V5.14753Z" fill="black"/>
<path d="M4.6095 5.14753H3.47934V6.27076H4.6095L4.6095 5.14753Z" fill="black"/>
<path d="M5.73966 5.14753H4.6095L4.6095 6.27076H5.73966V5.14753Z" fill="black"/>
<path d="M6.86982 5.14753H5.73966V6.27076H6.86982L6.86982 5.14753Z" fill="black"/>
<path d="M7.99998 5.14753H6.86982L6.86982 6.27076H7.99998V5.14753Z" fill="black"/>
<path d="M9.13014 5.14753H7.99998V6.27076H9.13014L9.13014 5.14753Z" fill="black"/>
<path d="M15.9111 5.14753L14.7809 5.14753L14.7809 6.27076H15.9111V5.14753Z" fill="black"/>
<path d="M1.21903 6.27076H0.0888672V7.39399H1.21903V6.27076Z" fill="black"/>
<path d="M9.13014 6.27076H7.99998L7.99998 7.39399H9.13014V6.27076Z" fill="black"/>
<path d="M15.9111 6.27076H14.7809V7.39399H15.9111V6.27076Z" fill="black"/>
<path d="M1.21903 7.39399H0.0888672V8.51722H1.21903V7.39399Z" fill="black"/>
<path d="M9.13014 7.39399H7.99998V8.51722H9.13014V7.39399Z" fill="black"/>
<path d="M15.9111 7.39399H14.7809V8.51722H15.9111V7.39399Z" fill="black"/>
<path d="M1.21903 8.51722H0.0888672V9.64046H1.21903V8.51722Z" fill="black"/>
<path d="M2.34919 8.51723L1.21903 8.51722V9.64046H2.34919V8.51723Z" fill="black"/>
<path d="M3.47934 8.51723H2.34919V9.64046H3.47934V8.51723Z" fill="black"/>
<path d="M4.6095 8.51723H3.47934V9.64046H4.6095V8.51723Z" fill="black"/>
<path d="M5.73966 8.51723H4.6095V9.64046H5.73966V8.51723Z" fill="black"/>
<path d="M6.86982 8.51723H5.73966V9.64046H6.86982V8.51723Z" fill="black"/>
<path d="M7.99998 8.51722L6.86982 8.51723V9.64046H7.99998L7.99998 8.51722Z" fill="black"/>
<path d="M9.13014 8.51722H7.99998L7.99998 9.64046H9.13014V8.51722Z" fill="black"/>
<path d="M15.9111 8.51722H14.7809V9.64046H15.9111V8.51722Z" fill="black"/>
<path d="M1.21903 9.64046H0.0888672V10.7637H1.21903V9.64046Z" fill="black"/>
<path d="M5.73966 9.64046H4.6095L4.6095 10.7637H5.73966V9.64046Z" fill="black"/>
<path d="M9.13014 9.64046H7.99998L7.99998 10.7637H9.13014V9.64046Z" fill="black"/>
<path d="M15.9111 9.64046H14.7809V10.7637H15.9111V9.64046Z" fill="black"/>
<path d="M1.21903 10.7637H0.0888672V11.8869H1.21903V10.7637Z" fill="black"/>
<path d="M2.34919 10.7637L1.21903 10.7637V11.8869H2.34919V10.7637Z" fill="black"/>
<path d="M3.47934 10.7637H2.34919V11.8869H3.47934V10.7637Z" fill="black"/>
<path d="M4.6095 10.7637L3.47934 10.7637V11.8869H4.6095L4.6095 10.7637Z" fill="black"/>
<path d="M5.73966 10.7637H4.6095L4.6095 11.8869H5.73966V10.7637Z" fill="black"/>
<path d="M9.13014 10.7637H7.99998V11.8869H9.13014V10.7637Z" fill="black"/>
<path d="M15.9111 10.7637H14.7809V11.8869H15.9111V10.7637Z" fill="black"/>
<path d="M1.21903 11.8869H0.0888672V13.0102H1.21903V11.8869Z" fill="black"/>
<path d="M5.73966 11.8869H4.6095L4.6095 13.0102H5.73966V11.8869Z" fill="black"/>
<path d="M9.13014 11.8869H7.99998V13.0102H9.13014V11.8869Z" fill="black"/>
<path d="M15.9111 11.8869H14.7809V13.0102H15.9111V11.8869Z" fill="black"/>
<path d="M1.21903 13.0102H0.0888672V14.1334H1.21903V13.0102Z" fill="black"/>
<path d="M2.34919 13.0102L1.21903 13.0102V14.1334H2.34919V13.0102Z" fill="black"/>
<path d="M3.47934 13.0102H2.34919V14.1334H3.47934V13.0102Z" fill="black"/>
<path d="M4.6095 13.0102L3.47934 13.0102V14.1334H4.6095L4.6095 13.0102Z" fill="black"/>
<path d="M5.73966 13.0102H4.6095L4.6095 14.1334H5.73966V13.0102Z" fill="black"/>
<path d="M6.86982 13.0102L5.73966 13.0102V14.1334H6.86982V13.0102Z" fill="black"/>
<path d="M7.99998 13.0102L6.86982 13.0102V14.1334H7.99998L7.99998 13.0102Z" fill="black"/>
<path d="M9.13014 13.0102H7.99998L7.99998 14.1334H9.13014V13.0102Z" fill="black"/>
<path d="M10.2603 13.0102L9.13014 13.0102V14.1334H10.2603V13.0102Z" fill="black"/>
<path d="M11.3905 13.0102H10.2603V14.1334H11.3905V13.0102Z" fill="black"/>
<path d="M12.5206 13.0102H11.3905V14.1334H12.5206V13.0102Z" fill="black"/>
<path d="M13.6508 13.0102H12.5206V14.1334H13.6508V13.0102Z" fill="black"/>
<path d="M14.7809 13.0102L13.6508 13.0102V14.1334H14.7809L14.7809 13.0102Z" fill="black"/>
<path d="M15.9111 13.0102H14.7809L14.7809 14.1334H15.9111V13.0102Z" fill="black"/>
</svg>
