<svg width="180" height="142" viewBox="0 0 180 142" fill="none" xmlns="http://www.w3.org/2000/svg">
<path d="M64.2857 12.8572H51.4286V25.7143H64.2857V12.8572Z" fill="white"/>
<path d="M90 12.8572H77.1429V25.7143H90V12.8572Z" fill="white"/>
<path d="M115.714 12.8572H102.857V25.7143H115.714V12.8572Z" fill="white"/>
<path d="M141.429 12.8572H128.571V25.7143H141.429V12.8572Z" fill="white"/>
<path d="M51.4286 25.7143L38.5714 25.7143V38.5715H51.4286L51.4286 25.7143Z" fill="white"/>
<path d="M77.1429 25.7143H64.2857L64.2857 38.5715H77.1429L77.1429 25.7143Z" fill="white"/>
<path d="M102.857 25.7143H90V38.5715H102.857L102.857 25.7143Z" fill="white"/>
<path d="M128.571 25.7143H115.714L115.714 38.5715H128.571L128.571 25.7143Z" fill="white"/>
<path d="M141.429 25.7143H128.571L128.571 38.5715H141.429V25.7143Z" fill="white"/>
<path d="M154.286 25.7143L141.429 25.7143V38.5715H154.286V25.7143Z" fill="white"/>
<path d="M115.714 38.5715H102.857L102.857 51.4286H115.714L115.714 38.5715Z" fill="white"/>
<path d="M128.571 38.5715H115.714L115.714 51.4286H128.571V38.5715Z" fill="white"/>
<path d="M141.429 38.5715H128.571V51.4286H141.429V38.5715Z" fill="white"/>
<path d="M154.286 38.5715H141.429V51.4286H154.286V38.5715Z" fill="white"/>
<path d="M167.143 38.5715L154.286 38.5715V51.4286H167.143V38.5715Z" fill="white"/>
<path d="M25.7143 51.4286H12.8572V64.2857H25.7143V51.4286Z" fill="white"/>
<path d="M38.5715 51.4286H25.7143V64.2857H38.5715V51.4286Z" fill="white"/>
<path d="M51.4286 51.4286H38.5715V64.2857H51.4286V51.4286Z" fill="white"/>
<path d="M64.2857 51.4286H51.4286V64.2857H64.2857V51.4286Z" fill="white"/>
<path d="M77.1429 51.4286H64.2857V64.2857H77.1429V51.4286Z" fill="white"/>
<path d="M90 51.4286H77.1429V64.2857H90V51.4286Z" fill="white"/>
<path d="M115.714 51.4286H102.857V64.2857H115.714V51.4286Z" fill="white"/>
<path d="M128.571 51.4286H115.714V64.2857H128.571V51.4286Z" fill="white"/>
<path d="M141.429 51.4286H128.571V64.2857H141.429V51.4286Z" fill="white"/>
<path d="M154.286 51.4286H141.429V64.2857H154.286V51.4286Z" fill="white"/>
<path d="M167.143 51.4286H154.286V64.2857H167.143V51.4286Z" fill="white"/>
<path d="M25.7143 64.2857H12.8572V77.1429H25.7143V64.2857Z" fill="white"/>
<path d="M38.5715 64.2857H25.7143V77.1429H38.5715V64.2857Z" fill="white"/>
<path d="M51.4286 64.2857H38.5715V77.1429H51.4286V64.2857Z" fill="white"/>
<path d="M64.2857 64.2857H51.4286V77.1429H64.2857V64.2857Z" fill="white"/>
<path d="M77.1429 64.2857H64.2857V77.1429H77.1429V64.2857Z" fill="white"/>
<path d="M90 64.2857H77.1429V77.1429H90V64.2857Z" fill="white"/>
<path d="M115.714 64.2857H102.857V77.1429H115.714V64.2857Z" fill="white"/>
<path d="M128.571 64.2857H115.714V77.1429H128.571V64.2857Z" fill="white"/>
<path d="M141.429 64.2857H128.571V77.1429H141.429V64.2857Z" fill="white"/>
<path d="M154.286 64.2857H141.429V77.1429H154.286V64.2857Z" fill="white"/>
<path d="M167.143 64.2857H154.286V77.1429H167.143V64.2857Z" fill="white"/>
<path d="M115.714 77.1429H102.857V90H115.714V77.1429Z" fill="white"/>
<path d="M128.571 77.1429H115.714V90H128.571V77.1429Z" fill="white"/>
<path d="M141.429 77.1429H128.571V90H141.429V77.1429Z" fill="white"/>
<path d="M154.286 77.1429H141.429V90H154.286V77.1429Z" fill="white"/>
<path d="M167.143 77.1429H154.286V90H167.143V77.1429Z" fill="white"/>
<path d="M25.7143 90H12.8572V102.857H25.7143V90Z" fill="white"/>
<path d="M38.5715 90H25.7143V102.857H38.5715V90Z" fill="white"/>
<path d="M51.4286 90H38.5715V102.857H51.4286V90Z" fill="white"/>
<path d="M77.1429 90H64.2857V102.857H77.1429V90Z" fill="white"/>
<path d="M90 90H77.1429V102.857H90V90Z" fill="white"/>
<path d="M115.714 90H102.857V102.857H115.714V90Z" fill="white"/>
<path d="M128.571 90H115.714V102.857H128.571V90Z" fill="white"/>
<path d="M141.429 90H128.571V102.857H141.429V90Z" fill="white"/>
<path d="M154.286 90H141.429V102.857H154.286V90Z" fill="white"/>
<path d="M167.143 90H154.286V102.857H167.143V90Z" fill="white"/>
<path d="M77.1429 102.857H64.2857V115.714H77.1429V102.857Z" fill="white"/>
<path d="M90 102.857H77.1429V115.714H90V102.857Z" fill="white"/>
<path d="M115.714 102.857H102.857V115.714H115.714V102.857Z" fill="white"/>
<path d="M128.571 102.857H115.714V115.714H128.571V102.857Z" fill="white"/>
<path d="M141.429 102.857H128.571V115.714H141.429V102.857Z" fill="white"/>
<path d="M154.286 102.857H141.429V115.714H154.286V102.857Z" fill="white"/>
<path d="M167.143 102.857H154.286V115.714H167.143V102.857Z" fill="white"/>
<path d="M25.7143 115.714H12.8572V128.571H25.7143V115.714Z" fill="white"/>
<path d="M38.5715 115.714H25.7143V128.571H38.5715V115.714Z" fill="white"/>
<path d="M51.4286 115.714H38.5715V128.571H51.4286V115.714Z" fill="white"/>
<path d="M77.1429 115.714H64.2857V128.571H77.1429V115.714Z" fill="white"/>
<path d="M90 115.714H77.1429V128.571H90V115.714Z" fill="white"/>
<path d="M115.714 115.714H102.857V128.571H115.714V115.714Z" fill="white"/>
<path d="M128.571 115.714H115.714V128.571H128.571V115.714Z" fill="white"/>
<path d="M141.429 115.714H128.571V128.571H141.429V115.714Z" fill="white"/>
<path d="M154.286 115.714H141.429V128.571H154.286V115.714Z" fill="white"/>
<path d="M167.143 115.714H154.286V128.571H167.143V115.714Z" fill="white"/>
<path d="M64.2857 0H51.4286V12.8571H64.2857V0Z" fill="black"/>
<path d="M77.1429 0H64.2857V12.8571H77.1429V0Z" fill="black"/>
<path d="M90 0H77.1429V12.8571H90V0Z" fill="black"/>
<path d="M102.857 0H90V12.8571H102.857V0Z" fill="black"/>
<path d="M115.714 0H102.857V12.8571H115.714V0Z" fill="black"/>
<path d="M128.571 0H115.714V12.8571H128.571V0Z" fill="black"/>
<path d="M141.429 0H128.571V12.8571H141.429V0Z" fill="black"/>
<path d="M38.5714 12.8572H25.7143V25.7143H38.5714V12.8572Z" fill="black"/>
<path d="M51.4286 12.8571L38.5714 12.8572V25.7143H51.4286L51.4286 12.8571Z" fill="black"/>
<path d="M51.4286 0H38.5714L38.5714 12.8572L51.4286 12.8571V0Z" fill="black"/>
<path d="M77.1429 12.8571H64.2857L64.2857 25.7143H77.1429V12.8571Z" fill="black"/>
<path d="M102.857 12.8571H90L90 25.7143H102.857V12.8571Z" fill="black"/>
<path d="M128.571 12.8571H115.714L115.714 25.7143H128.571V12.8571Z" fill="black"/>
<path d="M154.286 12.8572L141.429 12.8571V25.7143H154.286V12.8572Z" fill="black"/>
<path d="M25.7143 25.7143L12.8572 25.7143V38.5714H25.7143L25.7143 25.7143Z" fill="black"/>
<path d="M38.5714 25.7143H25.7143L25.7143 38.5714H38.5714V25.7143Z" fill="black"/>
<path d="M64.2857 25.7143H51.4286L51.4286 38.5714H64.2857L64.2857 25.7143Z" fill="black"/>
<path d="M90 25.7143H77.1429L77.1429 38.5714H90L90 25.7143Z" fill="black"/>
<path d="M115.714 25.7143H102.857L102.857 38.5714H115.714L115.714 25.7143Z" fill="black"/>
<path d="M167.143 25.7143L154.286 25.7143L154.286 38.5714H167.143V25.7143Z" fill="black"/>
<path d="M12.8572 38.5714L0 38.5714V51.4286H12.8571L12.8572 38.5714Z" fill="black"/>
<path d="M25.7143 38.5714H12.8572L12.8571 51.4286H25.7143V38.5714Z" fill="black"/>
<path d="M38.5714 38.5714H25.7143V51.4286H38.5714V38.5714Z" fill="black"/>
<path d="M51.4286 38.5714H38.5714V51.4286H51.4286L51.4286 38.5714Z" fill="black"/>
<path d="M64.2857 38.5714H51.4286L51.4286 51.4286H64.2857V38.5714Z" fill="black"/>
<path d="M77.1429 38.5714H64.2857V51.4286H77.1429L77.1429 38.5714Z" fill="black"/>
<path d="M90 38.5714H77.1429L77.1429 51.4286H90V38.5714Z" fill="black"/>
<path d="M102.857 38.5714H90V51.4286H102.857L102.857 38.5714Z" fill="black"/>
<path d="M180 38.5714L167.143 38.5714L167.143 51.4286H180V38.5714Z" fill="black"/>
<path d="M12.8571 51.4286H0V64.2857H12.8571V51.4286Z" fill="black"/>
<path d="M102.857 51.4286H90L90 64.2857H102.857V51.4286Z" fill="black"/>
<path d="M180 51.4286H167.143V64.2857H180V51.4286Z" fill="black"/>
<path d="M12.8571 64.2857H0V77.1428H12.8571V64.2857Z" fill="black"/>
<path d="M102.857 64.2857H90V77.1428H102.857V64.2857Z" fill="black"/>
<path d="M180 64.2857H167.143V77.1428H180V64.2857Z" fill="black"/>
<path d="M12.8571 77.1428H0V90H12.8571V77.1428Z" fill="black"/>
<path d="M25.7143 77.1429L12.8571 77.1428V90H25.7143V77.1429Z" fill="black"/>
<path d="M38.5714 77.1429H25.7143V90H38.5714V77.1429Z" fill="black"/>
<path d="M51.4286 77.1429H38.5714V90H51.4286V77.1429Z" fill="black"/>
<path d="M64.2857 77.1429H51.4286V90H64.2857V77.1429Z" fill="black"/>
<path d="M77.1429 77.1429H64.2857V90H77.1429V77.1429Z" fill="black"/>
<path d="M90 77.1428L77.1429 77.1429V90H90L90 77.1428Z" fill="black"/>
<path d="M102.857 77.1428H90L90 90H102.857V77.1428Z" fill="black"/>
<path d="M180 77.1428H167.143V90H180V77.1428Z" fill="black"/>
<path d="M12.8571 90H0V102.857H12.8571V90Z" fill="black"/>
<path d="M64.2857 90H51.4286L51.4286 102.857H64.2857V90Z" fill="black"/>
<path d="M102.857 90H90L90 102.857H102.857V90Z" fill="black"/>
<path d="M180 90H167.143V102.857H180V90Z" fill="black"/>
<path d="M12.8571 102.857H0V115.714H12.8571V102.857Z" fill="black"/>
<path d="M25.7143 102.857L12.8571 102.857V115.714H25.7143V102.857Z" fill="black"/>
<path d="M38.5714 102.857H25.7143V115.714H38.5714V102.857Z" fill="black"/>
<path d="M51.4286 102.857L38.5714 102.857V115.714H51.4286L51.4286 102.857Z" fill="black"/>
<path d="M64.2857 102.857H51.4286L51.4286 115.714H64.2857V102.857Z" fill="black"/>
<path d="M102.857 102.857H90V115.714H102.857V102.857Z" fill="black"/>
<path d="M180 102.857H167.143V115.714H180V102.857Z" fill="black"/>
<path d="M12.8571 115.714H0V128.571H12.8571V115.714Z" fill="black"/>
<path d="M64.2857 115.714H51.4286L51.4286 128.571H64.2857V115.714Z" fill="black"/>
<path d="M102.857 115.714H90V128.571H102.857V115.714Z" fill="black"/>
<path d="M180 115.714H167.143V128.571H180V115.714Z" fill="black"/>
<path d="M12.8571 128.571H0V141.429H12.8571V128.571Z" fill="black"/>
<path d="M25.7143 128.571L12.8571 128.571V141.429H25.7143V128.571Z" fill="black"/>
<path d="M38.5714 128.571H25.7143V141.429H38.5714V128.571Z" fill="black"/>
<path d="M51.4286 128.571L38.5714 128.571V141.429H51.4286L51.4286 128.571Z" fill="black"/>
<path d="M64.2857 128.571H51.4286L51.4286 141.429H64.2857V128.571Z" fill="black"/>
<path d="M77.1429 128.571L64.2857 128.571V141.429H77.1429V128.571Z" fill="black"/>
<path d="M90 128.571L77.1429 128.571V141.429H90L90 128.571Z" fill="black"/>
<path d="M102.857 128.571H90L90 141.429H102.857V128.571Z" fill="black"/>
<path d="M115.714 128.571L102.857 128.571V141.429H115.714V128.571Z" fill="black"/>
<path d="M128.571 128.571H115.714V141.429H128.571V128.571Z" fill="black"/>
<path d="M141.429 128.571H128.571V141.429H141.429V128.571Z" fill="black"/>
<path d="M154.286 128.571H141.429V141.429H154.286V128.571Z" fill="black"/>
<path d="M167.143 128.571L154.286 128.571V141.429H167.143L167.143 128.571Z" fill="black"/>
<path d="M180 128.571H167.143L167.143 141.429H180V128.571Z" fill="black"/>
</svg>
