<svg width="16" height="16" viewBox="0 0 16 16" fill="none" xmlns="http://www.w3.org/2000/svg">
<path d="M5.74815 2.93335H4.62222V4.0494H5.74815V2.93335Z" fill="white"/>
<path d="M8 2.93335H6.87407V4.0494H8V2.93335Z" fill="white"/>
<path d="M10.2519 2.93335H9.12593V4.0494H10.2519V2.93335Z" fill="white"/>
<path d="M12.5037 2.93335H11.3778V4.0494H12.5037V2.93335Z" fill="white"/>
<path d="M4.62222 4.0494L3.4963 4.0494V5.16545H4.62222L4.62222 4.0494Z" fill="white"/>
<path d="M6.87407 4.0494H5.74815L5.74815 5.16545H6.87407L6.87407 4.0494Z" fill="white"/>
<path d="M9.12593 4.0494H8V5.16545H9.12593L9.12593 4.0494Z" fill="white"/>
<path d="M11.3778 4.0494H10.2519L10.2519 5.16545H11.3778L11.3778 4.0494Z" fill="white"/>
<path d="M12.5037 4.0494H11.3778L11.3778 5.16545H12.5037V4.0494Z" fill="white"/>
<path d="M13.6296 4.0494L12.5037 4.0494V5.16545H13.6296V4.0494Z" fill="white"/>
<path d="M10.2519 5.16545H9.12593L9.12593 6.2815H10.2519L10.2519 5.16545Z" fill="white"/>
<path d="M11.3778 5.16545H10.2519L10.2519 6.2815H11.3778V5.16545Z" fill="white"/>
<path d="M12.5037 5.16545H11.3778V6.2815H12.5037V5.16545Z" fill="white"/>
<path d="M13.6296 5.16545H12.5037V6.2815H13.6296V5.16545Z" fill="white"/>
<path d="M14.7556 5.16545L13.6296 5.16545V6.2815H14.7556V5.16545Z" fill="white"/>
<path d="M2.37037 6.2815H1.24445V7.39755H2.37037V6.2815Z" fill="white"/>
<path d="M3.4963 6.2815H2.37037V7.39755H3.4963V6.2815Z" fill="white"/>
<path d="M4.62222 6.2815H3.4963V7.39755H4.62222V6.2815Z" fill="white"/>
<path d="M5.74815 6.2815H4.62222V7.39755H5.74815V6.2815Z" fill="white"/>
<path d="M6.87407 6.2815H5.74815V7.39755H6.87407V6.2815Z" fill="white"/>
<path d="M8 6.2815H6.87407V7.39755H8V6.2815Z" fill="white"/>
<path d="M10.2519 6.2815H9.12593V7.39755H10.2519V6.2815Z" fill="white"/>
<path d="M11.3778 6.2815H10.2519V7.39755H11.3778V6.2815Z" fill="white"/>
<path d="M12.5037 6.2815H11.3778V7.39755H12.5037V6.2815Z" fill="white"/>
<path d="M13.6296 6.2815H12.5037V7.39755H13.6296V6.2815Z" fill="white"/>
<path d="M14.7556 6.2815H13.6296V7.39755H14.7556V6.2815Z" fill="white"/>
<path d="M2.37037 7.39755H1.24445V8.5136H2.37037V7.39755Z" fill="white"/>
<path d="M3.4963 7.39755H2.37037V8.5136H3.4963V7.39755Z" fill="white"/>
<path d="M4.62222 7.39755H3.4963V8.5136H4.62222V7.39755Z" fill="white"/>
<path d="M5.74815 7.39755H4.62222V8.5136H5.74815V7.39755Z" fill="white"/>
<path d="M6.87407 7.39755H5.74815V8.5136H6.87407V7.39755Z" fill="white"/>
<path d="M8 7.39755H6.87407V8.5136H8V7.39755Z" fill="white"/>
<path d="M10.2519 7.39755H9.12593V8.5136H10.2519V7.39755Z" fill="white"/>
<path d="M11.3778 7.39755H10.2519V8.5136H11.3778V7.39755Z" fill="white"/>
<path d="M12.5037 7.39755H11.3778V8.5136H12.5037V7.39755Z" fill="white"/>
<path d="M13.6296 7.39755H12.5037V8.5136H13.6296V7.39755Z" fill="white"/>
<path d="M14.7556 7.39755H13.6296V8.5136H14.7556V7.39755Z" fill="white"/>
<path d="M10.2519 8.5136H9.12593V9.62965H10.2519V8.5136Z" fill="white"/>
<path d="M11.3778 8.5136H10.2519V9.62965H11.3778V8.5136Z" fill="white"/>
<path d="M12.5037 8.5136H11.3778V9.62965H12.5037V8.5136Z" fill="white"/>
<path d="M13.6296 8.5136H12.5037V9.62965H13.6296V8.5136Z" fill="white"/>
<path d="M14.7556 8.5136H13.6296V9.62965H14.7556V8.5136Z" fill="white"/>
<path d="M2.37037 9.62964H1.24445V10.7457H2.37037V9.62964Z" fill="white"/>
<path d="M3.4963 9.62964H2.37037V10.7457H3.4963V9.62964Z" fill="white"/>
<path d="M4.62222 9.62964H3.4963V10.7457H4.62222V9.62964Z" fill="white"/>
<path d="M6.87407 9.62964H5.74815V10.7457H6.87407V9.62964Z" fill="white"/>
<path d="M8 9.62964H6.87407V10.7457H8V9.62964Z" fill="white"/>
<path d="M10.2519 9.62965H9.12593V10.7457H10.2519V9.62965Z" fill="white"/>
<path d="M11.3778 9.62965H10.2519V10.7457H11.3778V9.62965Z" fill="white"/>
<path d="M12.5037 9.62965H11.3778V10.7457H12.5037V9.62965Z" fill="white"/>
<path d="M13.6296 9.62965H12.5037V10.7457H13.6296V9.62965Z" fill="white"/>
<path d="M14.7556 9.62965H13.6296V10.7457H14.7556V9.62965Z" fill="white"/>
<path d="M6.87407 10.7457H5.74815V11.8617H6.87407V10.7457Z" fill="white"/>
<path d="M8 10.7457H6.87407V11.8617H8V10.7457Z" fill="white"/>
<path d="M10.2519 10.7457H9.12593V11.8617H10.2519V10.7457Z" fill="white"/>
<path d="M11.3778 10.7457H10.2519V11.8617H11.3778V10.7457Z" fill="white"/>
<path d="M12.5037 10.7457H11.3778V11.8617H12.5037V10.7457Z" fill="white"/>
<path d="M13.6296 10.7457H12.5037V11.8617H13.6296V10.7457Z" fill="white"/>
<path d="M14.7556 10.7457H13.6296V11.8617H14.7556V10.7457Z" fill="white"/>
<path d="M2.37037 11.8617H1.24445V12.9778H2.37037V11.8617Z" fill="white"/>
<path d="M3.4963 11.8617H2.37037V12.9778H3.4963V11.8617Z" fill="white"/>
<path d="M4.62222 11.8617H3.4963V12.9778H4.62222V11.8617Z" fill="white"/>
<path d="M6.87407 11.8617H5.74815V12.9778H6.87407V11.8617Z" fill="white"/>
<path d="M8 11.8617H6.87407V12.9778H8V11.8617Z" fill="white"/>
<path d="M10.2519 11.8617H9.12593V12.9778H10.2519V11.8617Z" fill="white"/>
<path d="M11.3778 11.8617H10.2519V12.9778H11.3778V11.8617Z" fill="white"/>
<path d="M12.5037 11.8617H11.3778V12.9778H12.5037V11.8617Z" fill="white"/>
<path d="M13.6296 11.8617H12.5037V12.9778H13.6296V11.8617Z" fill="white"/>
<path d="M14.7556 11.8617H13.6296V12.9778H14.7556V11.8617Z" fill="white"/>
<path d="M5.73966 1.77783H4.6095V2.90106H5.73966V1.77783Z" fill="#444041"/>
<path d="M6.86982 1.77783H5.73966V2.90106H6.86982V1.77783Z" fill="#444041"/>
<path d="M7.99998 1.77783H6.86982V2.90106H7.99998V1.77783Z" fill="#444041"/>
<path d="M9.13014 1.77783H7.99998V2.90106H9.13014V1.77783Z" fill="#444041"/>
<path d="M10.2603 1.77783H9.13014V2.90106H10.2603V1.77783Z" fill="#444041"/>
<path d="M11.3905 1.77783H10.2603V2.90106H11.3905V1.77783Z" fill="#444041"/>
<path d="M12.5206 1.77783H11.3905V2.90106H12.5206V1.77783Z" fill="#444041"/>
<path d="M3.47934 2.90106H2.34918V4.0243H3.47934V2.90106Z" fill="#444041"/>
<path d="M4.6095 2.90106L3.47934 2.90106V4.0243H4.6095L4.6095 2.90106Z" fill="#444041"/>
<path d="M4.6095 1.77783H3.47934L3.47934 2.90106L4.6095 2.90106V1.77783Z" fill="#444041"/>
<path d="M6.86982 2.90106H5.73966L5.73966 4.0243H6.86982V2.90106Z" fill="#444041"/>
<path d="M9.13014 2.90106H7.99998L7.99998 4.0243H9.13014V2.90106Z" fill="#444041"/>
<path d="M11.3905 2.90106H10.2603L10.2603 4.0243H11.3905V2.90106Z" fill="#444041"/>
<path d="M13.6508 2.90106L12.5206 2.90106V4.0243H13.6508V2.90106Z" fill="#444041"/>
<path d="M2.34918 4.0243L1.21903 4.0243V5.14753H2.34919L2.34918 4.0243Z" fill="#444041"/>
<path d="M3.47934 4.0243H2.34918L2.34919 5.14753H3.47934V4.0243Z" fill="#444041"/>
<path d="M5.73966 4.0243H4.6095L4.6095 5.14753H5.73966L5.73966 4.0243Z" fill="#444041"/>
<path d="M7.99998 4.0243H6.86982L6.86982 5.14753H7.99998L7.99998 4.0243Z" fill="#444041"/>
<path d="M10.2603 4.0243H9.13014L9.13014 5.14753H10.2603L10.2603 4.0243Z" fill="#444041"/>
<path d="M14.7809 4.0243L13.6508 4.0243L13.6508 5.14753H14.7809V4.0243Z" fill="#444041"/>
<path d="M1.21903 5.14753L0.0888672 5.14753V6.27076H1.21903L1.21903 5.14753Z" fill="#444041"/>
<path d="M2.34919 5.14753H1.21903L1.21903 6.27076H2.34919V5.14753Z" fill="#444041"/>
<path d="M3.47934 5.14753H2.34919V6.27076H3.47934V5.14753Z" fill="#444041"/>
<path d="M4.6095 5.14753H3.47934V6.27076H4.6095L4.6095 5.14753Z" fill="#444041"/>
<path d="M5.73966 5.14753H4.6095L4.6095 6.27076H5.73966V5.14753Z" fill="#444041"/>
<path d="M6.86982 5.14753H5.73966V6.27076H6.86982L6.86982 5.14753Z" fill="#444041"/>
<path d="M7.99998 5.14753H6.86982L6.86982 6.27076H7.99998V5.14753Z" fill="#444041"/>
<path d="M9.13014 5.14753H7.99998V6.27076H9.13014L9.13014 5.14753Z" fill="#444041"/>
<path d="M15.9111 5.14753L14.7809 5.14753L14.7809 6.27076H15.9111V5.14753Z" fill="#444041"/>
<path d="M1.21903 6.27076H0.0888672V7.39399H1.21903V6.27076Z" fill="#444041"/>
<path d="M9.13014 6.27076H7.99998L7.99998 7.39399H9.13014V6.27076Z" fill="#444041"/>
<path d="M15.9111 6.27076H14.7809V7.39399H15.9111V6.27076Z" fill="#444041"/>
<path d="M1.21903 7.39399H0.0888672V8.51722H1.21903V7.39399Z" fill="#444041"/>
<path d="M9.13014 7.39399H7.99998V8.51722H9.13014V7.39399Z" fill="#444041"/>
<path d="M15.9111 7.39399H14.7809V8.51722H15.9111V7.39399Z" fill="#444041"/>
<path d="M1.21903 8.51722H0.0888672V9.64046H1.21903V8.51722Z" fill="#444041"/>
<path d="M2.34919 8.51723L1.21903 8.51722V9.64046H2.34919V8.51723Z" fill="#444041"/>
<path d="M3.47934 8.51723H2.34919V9.64046H3.47934V8.51723Z" fill="#444041"/>
<path d="M4.6095 8.51723H3.47934V9.64046H4.6095V8.51723Z" fill="#444041"/>
<path d="M5.73966 8.51723H4.6095V9.64046H5.73966V8.51723Z" fill="#444041"/>
<path d="M6.86982 8.51723H5.73966V9.64046H6.86982V8.51723Z" fill="#444041"/>
<path d="M7.99998 8.51722L6.86982 8.51723V9.64046H7.99998L7.99998 8.51722Z" fill="#444041"/>
<path d="M9.13014 8.51722H7.99998L7.99998 9.64046H9.13014V8.51722Z" fill="#444041"/>
<path d="M15.9111 8.51722H14.7809V9.64046H15.9111V8.51722Z" fill="#444041"/>
<path d="M1.21903 9.64046H0.0888672V10.7637H1.21903V9.64046Z" fill="#444041"/>
<path d="M5.73966 9.64046H4.6095L4.6095 10.7637H5.73966V9.64046Z" fill="#444041"/>
<path d="M9.13014 9.64046H7.99998L7.99998 10.7637H9.13014V9.64046Z" fill="#444041"/>
<path d="M15.9111 9.64046H14.7809V10.7637H15.9111V9.64046Z" fill="#444041"/>
<path d="M1.21903 10.7637H0.0888672V11.8869H1.21903V10.7637Z" fill="#444041"/>
<path d="M2.34919 10.7637L1.21903 10.7637V11.8869H2.34919V10.7637Z" fill="#444041"/>
<path d="M3.47934 10.7637H2.34919V11.8869H3.47934V10.7637Z" fill="#444041"/>
<path d="M4.6095 10.7637L3.47934 10.7637V11.8869H4.6095L4.6095 10.7637Z" fill="#444041"/>
<path d="M5.73966 10.7637H4.6095L4.6095 11.8869H5.73966V10.7637Z" fill="#444041"/>
<path d="M9.13014 10.7637H7.99998V11.8869H9.13014V10.7637Z" fill="#444041"/>
<path d="M15.9111 10.7637H14.7809V11.8869H15.9111V10.7637Z" fill="#444041"/>
<path d="M1.21903 11.8869H0.0888672V13.0102H1.21903V11.8869Z" fill="#444041"/>
<path d="M5.73966 11.8869H4.6095L4.6095 13.0102H5.73966V11.8869Z" fill="#444041"/>
<path d="M9.13014 11.8869H7.99998V13.0102H9.13014V11.8869Z" fill="#444041"/>
<path d="M15.9111 11.8869H14.7809V13.0102H15.9111V11.8869Z" fill="#444041"/>
<path d="M1.21903 13.0102H0.0888672V14.1334H1.21903V13.0102Z" fill="#444041"/>
<path d="M2.34919 13.0102L1.21903 13.0102V14.1334H2.34919V13.0102Z" fill="#444041"/>
<path d="M3.47934 13.0102H2.34919V14.1334H3.47934V13.0102Z" fill="#444041"/>
<path d="M4.6095 13.0102L3.47934 13.0102V14.1334H4.6095L4.6095 13.0102Z" fill="#444041"/>
<path d="M5.73966 13.0102H4.6095L4.6095 14.1334H5.73966V13.0102Z" fill="#444041"/>
<path d="M6.86982 13.0102L5.73966 13.0102V14.1334H6.86982V13.0102Z" fill="#444041"/>
<path d="M7.99998 13.0102L6.86982 13.0102V14.1334H7.99998L7.99998 13.0102Z" fill="#444041"/>
<path d="M9.13014 13.0102H7.99998L7.99998 14.1334H9.13014V13.0102Z" fill="#444041"/>
<path d="M10.2603 13.0102L9.13014 13.0102V14.1334H10.2603V13.0102Z" fill="#444041"/>
<path d="M11.3905 13.0102H10.2603V14.1334H11.3905V13.0102Z" fill="#444041"/>
<path d="M12.5206 13.0102H11.3905V14.1334H12.5206V13.0102Z" fill="#444041"/>
<path d="M13.6508 13.0102H12.5206V14.1334H13.6508V13.0102Z" fill="#444041"/>
<path d="M14.7809 13.0102L13.6508 13.0102V14.1334H14.7809L14.7809 13.0102Z" fill="#444041"/>
<path d="M15.9111 13.0102H14.7809L14.7809 14.1334H15.9111V13.0102Z" fill="#444041"/>
</svg>
